<?xml version="1.0" encoding="UTF-8"?>
<!DOCTYPE svg PUBLIC "-//W3C//DTD SVG 1.1//EN" "http://www.w3.org/Graphics/SVG/1.1/DTD/svg11.dtd">
<svg xmlns="http://www.w3.org/2000/svg" version="1.1" width="344px" height="300px" style="shape-rendering:geometricPrecision; text-rendering:geometricPrecision; image-rendering:optimizeQuality; fill-rule:evenodd; clip-rule:evenodd" xmlns:xlink="http://www.w3.org/1999/xlink">
<g><path style="opacity:0.936" fill="#0e82d7" d="M 84.5,-0.5 C 87.8333,-0.5 91.1667,-0.5 94.5,-0.5C 100.324,7.80428 106.157,16.1376 112,24.5C 112.483,25.448 112.649,26.448 112.5,27.5C 89.1188,24.494 65.7854,21.1607 42.5,17.5C 46.2335,12.7953 50.9002,9.29531 56.5,7C 65.7155,3.53176 75.0488,1.03176 84.5,-0.5 Z"/></g>
<g><path style="opacity:0.933" fill="#0e82d7" d="M 115.5,3.5 C 123.406,1.87624 131.073,3.04291 138.5,7C 148.147,11.655 156.98,17.4883 165,24.5C 164.36,36.0093 162.526,47.3426 159.5,58.5C 144.779,40.1233 130.113,21.79 115.5,3.5 Z"/></g>
<g><path style="opacity:0.934" fill="#0e82d7" d="M 24.5,33.5 C 35.2102,34.839 45.8769,36.5057 56.5,38.5C 39.4344,54.5317 21.7678,69.8651 3.5,84.5C 1.94551,75.0371 3.44551,66.0371 8,57.5C 12.3011,48.5268 17.8011,40.5268 24.5,33.5 Z"/></g>
<g><path style="opacity:0.753" fill="#0e82d7" d="M 109.5,42.5 C 111.888,43.2187 113.388,44.8854 114,47.5C 115.091,53.0969 114.424,58.4302 112,63.5C 110.989,64.3366 109.822,64.67 108.5,64.5C 109.053,60.8876 110.053,57.3876 111.5,54C 110.9,50.8658 109.9,47.8658 108.5,45C 108.743,44.0979 109.077,43.2646 109.5,42.5 Z"/></g>
<g><path style="opacity:0.729" fill="#0e82d7" d="M 88.5,43.5 C 89.8333,43.5 91.1667,43.5 92.5,43.5C 90.9555,46.6104 89.9555,49.9437 89.5,53.5C 89.6354,56.7747 90.6354,59.7747 92.5,62.5C 90.0094,64.9684 88.1761,64.3017 87,60.5C 84.9147,54.5991 85.4147,48.9324 88.5,43.5 Z"/></g>
<g><path style="opacity:0.697" fill="#0e82d7" d="M 92.5,47.5 C 94.3464,47.2222 95.6798,47.8888 96.5,49.5C 95.3818,52.8116 95.3818,56.1449 96.5,59.5C 94.549,59.7733 93.049,59.1066 92,57.5C 91.3412,54.1119 91.5078,50.7786 92.5,47.5 Z"/></g>
<g><path style="opacity:0.743" fill="#0e82d7" d="M 104.5,47.5 C 105.822,47.33 106.989,47.6634 108,48.5C 110,51.8333 110,55.1667 108,58.5C 106.989,59.3366 105.822,59.67 104.5,59.5C 105.833,55.5 105.833,51.5 104.5,47.5 Z"/></g>
<g><path style="opacity:0.878" fill="#0e82d7" d="M 98.5,50.5 C 101.261,49.9147 102.927,50.9147 103.5,53.5C 102.581,59.7937 102.247,66.127 102.5,72.5C 111.915,72.0828 121.248,72.5828 130.5,74C 133.333,75.5 135.5,77.6667 137,80.5C 138.25,85.4195 138.75,90.4195 138.5,95.5C 144.079,96.1977 149.245,95.1977 154,92.5C 158.167,92.6667 160.333,94.8333 160.5,99C 158.206,104.994 154.54,105.994 149.5,102C 145.848,101.501 142.182,101.335 138.5,101.5C 138.5,108.5 138.5,115.5 138.5,122.5C 113.167,122.5 87.8333,122.5 62.5,122.5C 62.5,115.5 62.5,108.5 62.5,101.5C 55.5236,101.234 48.8569,102.068 42.5,104C 37.9573,98.6696 38.9573,94.8363 45.5,92.5C 47.8998,93.0183 49.8998,94.185 51.5,96C 54.8333,96.6667 58.1667,96.6667 61.5,96C 62.3002,91.92 62.8002,87.7533 63,83.5C 64.5,78 68,74.5 73.5,73C 81.8267,72.5003 90.16,72.3336 98.5,72.5C 98.2371,65.0635 98.2371,57.7302 98.5,50.5 Z M 75.5,79.5 C 92.9276,79.028 110.261,79.528 127.5,81C 129.049,82.214 130.215,83.714 131,85.5C 131.5,95.4944 131.666,105.494 131.5,115.5C 110.833,115.5 90.1667,115.5 69.5,115.5C 69.3335,105.161 69.5002,94.828 70,84.5C 71.4055,82.2563 73.2389,80.5897 75.5,79.5 Z"/></g>
<g><path style="opacity:0.796" fill="#0e82d7" d="M 180.5,65.5 C 184.691,65.0319 188.024,66.3652 190.5,69.5C 190.291,70.086 189.957,70.586 189.5,71C 186.854,71.4974 184.187,71.6641 181.5,71.5C 181.5,72.5 181.5,73.5 181.5,74.5C 184.187,74.3359 186.854,74.5026 189.5,75C 190.833,76.6667 190.833,78.3333 189.5,80C 186.854,80.4974 184.187,80.6641 181.5,80.5C 181.5,82.1667 181.5,83.8333 181.5,85.5C 184.187,85.3359 186.854,85.5026 189.5,86C 190.554,87.3876 190.72,88.8876 190,90.5C 185.263,91.4692 180.43,91.8025 175.5,91.5C 175.5,83.1667 175.5,74.8333 175.5,66.5C 177.415,66.7845 179.081,66.4511 180.5,65.5 Z"/></g>
<g><path style="opacity:0.835" fill="#0e82d7" d="M 196.5,65.5 C 200.215,65.423 203.881,65.7564 207.5,66.5C 207.5,68.1667 207.5,69.8333 207.5,71.5C 204.833,71.5 202.167,71.5 199.5,71.5C 199.5,72.5 199.5,73.5 199.5,74.5C 201.857,74.3367 204.19,74.5034 206.5,75C 207.406,76.6995 207.739,78.5328 207.5,80.5C 204.833,80.5 202.167,80.5 199.5,80.5C 199.5,82.1667 199.5,83.8333 199.5,85.5C 202.167,85.5 204.833,85.5 207.5,85.5C 207.739,87.4672 207.406,89.3005 206.5,91C 202.179,91.499 197.846,91.6657 193.5,91.5C 193.5,83.1667 193.5,74.8333 193.5,66.5C 194.791,66.7373 195.791,66.404 196.5,65.5 Z"/></g>
<g><path style="opacity:0.849" fill="#0e82d7" d="M 213.5,65.5 C 216.93,65.1065 220.096,65.7732 223,67.5C 223.72,69.1124 223.554,70.6124 222.5,72C 220.144,72.1554 217.811,72.1554 215.5,72C 217.705,74.5402 220.205,76.7068 223,78.5C 227.1,88.0737 223.933,92.2404 213.5,91C 209.357,89.422 208.691,87.0887 211.5,84C 212.5,83.3333 213.5,83.3333 214.5,84C 216.133,86.8599 217.8,87.0265 219.5,84.5C 216.822,81.3226 213.988,78.3226 211,75.5C 209.861,71.5789 210.695,68.2456 213.5,65.5 Z"/></g>
<g><path style="opacity:0.863" fill="#0e82d7" d="M 230.5,65.5 C 233.881,65.4595 237.214,65.7929 240.5,66.5C 240.5,68.1667 240.5,69.8333 240.5,71.5C 238.549,71.2267 237.049,71.8934 236,73.5C 235.501,79.4908 235.334,85.4908 235.5,91.5C 233.856,91.7135 232.356,91.3802 231,90.5C 230.5,84.1754 230.334,77.8421 230.5,71.5C 226.5,72.1667 224.833,70.5 225.5,66.5C 227.415,66.7845 229.081,66.4511 230.5,65.5 Z"/></g>
<g><path style="opacity:0.844" fill="#0e82d7" d="M 285.5,65.5 C 287.167,65.5 288.833,65.5 290.5,65.5C 290.5,67.8333 290.5,70.1667 290.5,72.5C 299.884,69.7133 303.884,73.2133 302.5,83C 302.333,85.5 302.167,88 302,90.5C 300.612,91.5536 299.112,91.7203 297.5,91C 296.859,86.548 296.192,82.048 295.5,77.5C 293.282,76.8123 291.782,77.8123 291,80.5C 290.501,84.1516 290.335,87.8183 290.5,91.5C 288.856,91.7135 287.356,91.3802 286,90.5C 285.5,82.1733 285.334,73.84 285.5,65.5 Z"/></g>
<g><path style="opacity:0.832" fill="#0e82d7" d="M 248.5,71.5 C 256.883,71.2164 260.883,75.2164 260.5,83.5C 256.116,83.1744 251.783,83.5078 247.5,84.5C 248.171,85.9458 249.338,86.6125 251,86.5C 253.478,85.6681 255.978,85.5014 258.5,86C 259.412,88.4882 258.412,90.1548 255.5,91C 244.667,92.8333 240.167,88.3333 242,77.5C 243.436,74.5581 245.603,72.5581 248.5,71.5 Z M 249.5,76.5 C 255.982,78.1207 255.648,78.6207 248.5,78C 249.056,77.6174 249.389,77.1174 249.5,76.5 Z"/></g>
<g><path style="opacity:0.807" fill="#0e82d7" d="M 270.5,71.5 C 274.459,71.0713 277.959,72.0713 281,74.5C 281.544,76.8453 280.544,78.1786 278,78.5C 273.612,75.6101 270.445,76.6101 268.5,81.5C 268.632,83.601 269.632,85.101 271.5,86C 274.486,85.8724 277.486,85.8724 280.5,86C 281.705,88.2342 281.039,89.9008 278.5,91C 266.205,93.3723 261.372,88.5389 264,76.5C 265.805,74.1743 267.972,72.5077 270.5,71.5 Z"/></g>
<g><path style="opacity:0.919" fill="#0e82d7" d="M 81.5,85.5 C 95.557,85.9437 99.7236,92.6104 94,105.5C 86.3487,111.087 79.6821,110.087 74,102.5C 71.6599,94.5248 74.1599,88.8582 81.5,85.5 Z"/></g>
<g><path style="opacity:0.922" fill="#0e82d7" d="M 112.5,85.5 C 126.489,85.9425 130.656,92.6091 125,105.5C 116.853,111.295 110.186,109.962 105,101.5C 102.965,93.9068 105.465,88.5735 112.5,85.5 Z"/></g>
<g><path style="opacity:0.934" fill="#0e82d7" d="M -0.5,109.5 C -0.5,108.167 -0.5,106.833 -0.5,105.5C 8.6461,99.4223 17.6461,93.089 26.5,86.5C 26.8333,87.5 27.1667,88.5 27.5,89.5C 25.0824,112.262 22.0824,134.928 18.5,157.5C 10.7463,149.332 5.57961,139.665 3,128.5C 1.81257,122.028 0.645903,115.694 -0.5,109.5 Z"/></g>
<g><path style="opacity:0.809" fill="#0e82d7" d="M 185.5,105.5 C 190.816,105.318 195.15,107.152 198.5,111C 198,112.833 196.833,114 195,114.5C 189.99,110.237 185.323,110.57 181,115.5C 180.769,126.592 185.436,129.259 195,123.5C 197.723,124.208 198.723,125.875 198,128.5C 192.204,133.136 186.038,133.636 179.5,130C 173.996,124.137 173.163,117.637 177,110.5C 179.682,108.415 182.516,106.748 185.5,105.5 Z"/></g>
<g><path style="opacity:0.825" fill="#0e82d7" d="M 201.5,105.5 C 203.288,105.215 204.955,105.548 206.5,106.5C 207.213,108.776 207.713,111.109 208,113.5C 211.366,112.005 214.532,112.338 217.5,114.5C 218.454,120.104 218.788,125.771 218.5,131.5C 216.833,131.5 215.167,131.5 213.5,131.5C 213.575,127.103 213.075,122.77 212,118.5C 210.667,117.167 209.333,117.167 208,118.5C 207.501,122.821 207.334,127.154 207.5,131.5C 205.5,131.5 203.5,131.5 201.5,131.5C 201.5,122.833 201.5,114.167 201.5,105.5 Z"/></g>
<g><path style="opacity:0.765" fill="#0e82d7" d="M 244.5,105.5 C 246.144,105.286 247.644,105.62 249,106.5C 249.5,114.827 249.666,123.16 249.5,131.5C 247.5,131.5 245.5,131.5 243.5,131.5C 243.197,122.749 243.53,114.082 244.5,105.5 Z"/></g>
<g><path style="opacity:0.772" fill="#0e82d7" d="M 252.5,105.5 C 254.144,105.286 255.644,105.62 257,106.5C 257.5,114.827 257.666,123.16 257.5,131.5C 255.533,131.739 253.699,131.406 252,130.5C 251.199,122.088 251.366,113.755 252.5,105.5 Z"/></g>
<g><path style="opacity:0.873" fill="#0e82d7" d="M 225.5,112.5 C 230.651,112.978 235.651,112.978 240.5,112.5C 240.5,118.833 240.5,125.167 240.5,131.5C 238.533,131.739 236.699,131.406 235,130.5C 230.515,133.217 226.515,132.55 223,128.5C 220.453,122.558 221.287,117.225 225.5,112.5 Z M 228.5,117.5 C 234.556,117.281 236.39,119.948 234,125.5C 230.234,127.877 227.734,126.71 226.5,122C 227.044,120.415 227.711,118.915 228.5,117.5 Z"/></g>
<g><path style="opacity:0.841" fill="#0e82d7" d="M 264.5,112.5 C 273.718,110.597 278.718,114.263 279.5,123.5C 274.786,123.173 270.12,123.507 265.5,124.5C 268.03,128.109 271.03,128.442 274.5,125.5C 278.398,127.313 278.398,129.147 274.5,131C 263.504,133.924 258.671,129.757 260,118.5C 260.979,116.032 262.479,114.032 264.5,112.5 Z M 266.5,117.5 C 268.75,117.181 270.75,117.681 272.5,119C 270.167,119.667 267.833,119.667 265.5,119C 266.056,118.617 266.389,118.117 266.5,117.5 Z"/></g>
<g><path style="opacity:0.842" fill="#0e82d7" d="M 282.5,112.5 C 285.802,113.154 288.969,113.154 292,112.5C 294.261,112.439 296.261,113.106 298,114.5C 298.499,120.157 298.666,125.824 298.5,131.5C 296.833,131.5 295.167,131.5 293.5,131.5C 293.666,127.486 293.499,123.486 293,119.5C 291.451,116.997 289.784,116.997 288,119.5C 287.501,123.486 287.334,127.486 287.5,131.5C 285.5,131.5 283.5,131.5 281.5,131.5C 281.209,125.077 281.542,118.744 282.5,112.5 Z"/></g>
<g><path style="opacity:0.823" fill="#0e82d7" d="M 306.5,131.5 C 301.445,127.111 300.278,121.777 303,115.5C 303.903,114.299 305.069,113.465 306.5,113C 311.321,112.872 315.988,112.872 320.5,113C 321.865,120.154 321.699,127.321 320,134.5C 316.257,138.259 311.757,139.426 306.5,138C 300.207,135.071 300.207,132.905 306.5,131.5 Z M 309.5,117.5 C 315.643,118.026 316.976,120.86 313.5,126C 310.006,126.861 307.673,125.528 306.5,122C 307.386,120.385 308.386,118.885 309.5,117.5 Z M 306.5,131.5 C 309.167,131.5 311.833,131.5 314.5,131.5C 314.038,132.88 313.038,133.547 311.5,133.5C 309.578,133.199 307.912,132.533 306.5,131.5 Z"/></g>
<g><path style="opacity:0.832" fill="#0e82d7" d="M 343.5,119.5 C 343.5,120.833 343.5,122.167 343.5,123.5C 338.938,123.38 334.272,123.713 329.5,124.5C 332.03,128.109 335.03,128.442 338.5,125.5C 341.153,126.285 341.82,127.785 340.5,130C 331.314,134.572 325.648,131.906 323.5,122C 324.886,113.316 329.886,110.316 338.5,113C 340.826,114.805 342.492,116.972 343.5,119.5 Z M 330.5,117.5 C 332.75,117.181 334.75,117.681 336.5,119C 334.167,119.667 331.833,119.667 329.5,119C 330.056,118.617 330.389,118.117 330.5,117.5 Z"/></g>
<g><path style="opacity:0.834" fill="#0e82d7" d="M 83.5,126.5 C 94.8382,126.333 106.172,126.5 117.5,127C 120.167,129 120.167,131 117.5,133C 105.833,133.667 94.1667,133.667 82.5,133C 81.1443,130.586 81.4776,128.419 83.5,126.5 Z"/></g>
<g><path style="opacity:0.814" fill="#0e82d7" d="M 92.5,137.5 C 97.8437,137.334 103.177,137.501 108.5,138C 110.922,140.112 110.922,142.112 108.5,144C 102.833,144.667 97.1667,144.667 91.5,144C 90.1443,141.586 90.4776,139.419 92.5,137.5 Z"/></g>
<g><path style="opacity:0.932" fill="#0e82d7" d="M 39.5,142.5 C 56.0495,159.884 71.7161,178.051 86.5,197C 73.5399,197.35 61.5399,194.016 50.5,187C 45.5782,183.622 40.7449,180.122 36,176.5C 36.505,165.123 37.6716,153.789 39.5,142.5 Z"/></g>
<g><path style="opacity:0.937" fill="#0e82d7" d="M 90.5,173.5 C 93.6491,172.835 96.9825,172.502 100.5,172.5C 118.833,173.348 137.166,174.181 155.5,175C 157.577,175.192 159.577,175.692 161.5,176.5C 156.11,183.034 149.444,187.868 141.5,191C 131.81,194.924 121.81,197.257 111.5,198C 104.127,190.041 97.1269,181.875 90.5,173.5 Z"/></g>
<g><path style="opacity:0.893" fill="#0e82d7" d="M 239.5,247.5 C 242.167,247.5 244.833,247.5 247.5,247.5C 247.334,251.846 247.501,256.179 248,260.5C 251.256,258.571 254.756,258.071 258.5,259C 260.333,259.5 261.5,260.667 262,262.5C 263.396,270.08 263.896,277.747 263.5,285.5C 260.833,285.5 258.167,285.5 255.5,285.5C 255.666,279.158 255.5,272.825 255,266.5C 252.756,264.006 250.423,264.006 248,266.5C 247.5,272.825 247.334,279.158 247.5,285.5C 244.833,285.5 242.167,285.5 239.5,285.5C 239.5,272.833 239.5,260.167 239.5,247.5 Z"/></g>
<g><path style="opacity:0.945" fill="#0e82d7" d="M 66.5,249.5 C 69.1667,249.5 71.8333,249.5 74.5,249.5C 74.5,259.5 74.5,269.5 74.5,279.5C 79.5,279.5 84.5,279.5 89.5,279.5C 89.5,281.5 89.5,283.5 89.5,285.5C 81.8333,285.5 74.1667,285.5 66.5,285.5C 66.5,273.5 66.5,261.5 66.5,249.5 Z"/></g>
<g><path style="opacity:0.878" fill="#0e82d7" d="M 100.5,249.5 C 111.68,247.077 118.68,251.244 121.5,262C 118.518,262.498 115.518,262.665 112.5,262.5C 112.377,257.266 109.71,255.099 104.5,256C 103.069,256.465 101.903,257.299 101,258.5C 99,264.5 99,270.5 101,276.5C 103.775,279.654 106.942,280.154 110.5,278C 112.155,276.556 112.822,274.722 112.5,272.5C 115.518,272.335 118.518,272.502 121.5,273C 118.683,283.917 111.683,287.917 100.5,285C 97.0629,283.895 94.5629,281.728 93,278.5C 91.4638,272.251 91.1304,265.917 92,259.5C 93.6871,255.084 96.5205,251.751 100.5,249.5 Z"/></g>
<g><path style="opacity:0.885" fill="#0e82d7" d="M 134.5,250.5 C 137.64,249.359 140.973,249.192 144.5,250C 146.461,253.421 148.294,256.921 150,260.5C 152.167,257 154.333,253.5 156.5,250C 159.554,249.179 162.554,249.345 165.5,250.5C 162.365,256.131 159.032,261.631 155.5,267C 158.916,273.167 162.582,279.167 166.5,285C 163.167,285.667 159.833,285.667 156.5,285C 154.709,281.249 152.543,277.749 150,274.5C 148.421,277.994 146.587,281.327 144.5,284.5C 141.216,285.657 137.882,285.824 134.5,285C 138.471,279.529 141.804,273.696 144.5,267.5C 141.912,261.314 138.579,255.647 134.5,250.5 Z"/></g>
<g><path style="opacity:0.817" fill="#0e82d7" d="M 269.5,249.5 C 275.113,248.079 277.28,250.079 276,255.5C 273.936,256.591 271.769,256.758 269.5,256C 266.939,253.844 266.939,251.677 269.5,249.5 Z"/></g>
<g><path style="opacity:0.906" fill="#0e82d7" d="M 225.5,252.5 C 228.167,252.5 230.833,252.5 233.5,252.5C 233.5,254.833 233.5,257.167 233.5,259.5C 234.833,259.5 236.167,259.5 237.5,259.5C 237.5,261.167 237.5,262.833 237.5,264.5C 236.167,264.5 234.833,264.5 233.5,264.5C 233.334,269.179 233.501,273.845 234,278.5C 235.011,279.337 236.178,279.67 237.5,279.5C 237.5,281.5 237.5,283.5 237.5,285.5C 234.482,285.665 231.482,285.498 228.5,285C 227.667,284.167 226.833,283.333 226,282.5C 225.501,276.509 225.334,270.509 225.5,264.5C 224.167,264.5 222.833,264.5 221.5,264.5C 221.5,262.833 221.5,261.167 221.5,259.5C 222.833,259.5 224.167,259.5 225.5,259.5C 225.5,257.167 225.5,254.833 225.5,252.5 Z"/></g>
<g><path style="opacity:0.889" fill="#0e82d7" d="M 174.5,258.5 C 178.182,258.335 181.848,258.501 185.5,259C 187.286,259.785 188.786,260.951 190,262.5C 191.036,270.019 191.869,277.519 192.5,285C 187.256,285 182.09,285.166 177,285.5C 168.811,285.115 166.145,281.115 169,273.5C 170.214,271.951 171.714,270.785 173.5,270C 176.882,269.824 180.215,269.324 183.5,268.5C 182.035,264.754 179.702,263.921 176.5,266C 173.854,266.497 171.187,266.664 168.5,266.5C 168.642,262.367 170.642,259.7 174.5,258.5 Z M 178.5,274.5 C 180.167,274.5 181.833,274.5 183.5,274.5C 183.621,277.541 182.121,279.208 179,279.5C 174.634,278.237 174.467,276.57 178.5,274.5 Z"/></g>
<g><path style="opacity:0.89" fill="#0e82d7" d="M 206.5,258.5 C 210.839,257.846 214.673,258.846 218,261.5C 219.401,269.415 219.901,277.415 219.5,285.5C 216.833,285.5 214.167,285.5 211.5,285.5C 211.666,279.158 211.5,272.825 211,266.5C 208.756,264.006 206.423,264.006 204,266.5C 203.5,272.825 203.334,279.158 203.5,285.5C 200.833,285.5 198.167,285.5 195.5,285.5C 195.5,276.833 195.5,268.167 195.5,259.5C 198.448,259.223 201.281,259.556 204,260.5C 204.995,259.934 205.828,259.267 206.5,258.5 Z"/></g>
<g><path style="opacity:0.875" fill="#0e82d7" d="M 268.5,259.5 C 271.167,259.5 273.833,259.5 276.5,259.5C 276.5,268.167 276.5,276.833 276.5,285.5C 273.833,285.5 271.167,285.5 268.5,285.5C 268.5,276.833 268.5,268.167 268.5,259.5 Z"/></g>
</svg>
