<?xml version="1.0" standalone="no"?>
<!DOCTYPE svg PUBLIC "-//W3C//DTD SVG 20010904//EN"
 "http://www.w3.org/TR/2001/REC-SVG-20010904/DTD/svg10.dtd">
<svg version="1.0" xmlns="http://www.w3.org/2000/svg"
 width="700.000000pt" height="700.000000pt" viewBox="0 0 700.000000 700.000000"
 preserveAspectRatio="xMidYMid meet">

<g transform="translate(0.000000,700.000000) scale(0.100000,-0.100000)"
fill="#000000" stroke="none">
<path d="M2505 4690 c-69 -12 -205 -57 -243 -81 -18 -10 -32 -27 -32 -38 0
-34 49 -190 112 -352 48 -127 64 -158 77 -154 78 24 222 24 284 0 13 -5 28 3
53 29 19 20 32 36 29 36 -3 0 4 9 15 20 12 12 18 25 15 30 -4 6 1 13 9 16 9 3
13 10 10 15 -3 5 0 9 6 9 6 0 8 5 5 10 -3 6 -1 10 5 10 6 0 8 5 5 10 -3 6 1
13 9 16 9 3 13 10 10 15 -3 5 0 9 6 9 6 0 8 5 5 10 -3 6 -1 10 4 10 6 0 10 4
9 8 -2 5 20 58 49 118 76 161 76 157 -3 188 -142 57 -330 85 -439 66z"/>
<path d="M5220 3990 c0 -13 7 -20 20 -20 13 0 20 7 20 20 0 13 -7 20 -20 20
-13 0 -20 -7 -20 -20z"/>
<path d="M5030 3890 c0 -103 1 -110 20 -110 17 0 20 7 20 49 0 59 20 87 51 71
15 -9 19 -22 19 -65 0 -48 2 -55 20 -55 18 0 20 7 20 70 0 63 -2 71 -25 86
-17 11 -36 14 -55 10 -28 -5 -30 -3 -30 24 0 23 -4 30 -20 30 -19 0 -20 -7
-20 -110z"/>
<path d="M4943 3970 c-3 -11 -12 -20 -19 -20 -19 0 -18 -36 0 -43 10 -4 16
-25 18 -64 3 -55 4 -58 31 -61 22 -3 27 1 27 17 0 12 -4 21 -10 21 -5 0 -10
20 -10 45 0 25 5 45 10 45 6 0 10 9 10 20 0 11 -4 20 -10 20 -5 0 -10 9 -10
20 0 12 -7 20 -16 20 -9 0 -18 -9 -21 -20z"/>
<path d="M2473 3963 c-39 -4 -43 -7 -47 -36 -3 -18 -15 -95 -26 -172 -29 -186
-74 -401 -107 -500 -35 -106 -127 -326 -166 -395 -92 -165 -218 -319 -344
-421 l-42 -34 33 -70 c46 -96 110 -178 181 -232 81 -62 119 -77 148 -61 12 7
24 12 27 13 3 0 19 14 35 30 21 21 24 23 10 5 -12 -15 -4 -11 18 11 21 19 39
44 41 53 1 10 13 27 27 38 13 11 17 17 9 13 -8 -4 -4 3 10 15 14 12 18 19 10
15 -8 -4 -4 3 10 15 14 12 18 19 10 15 -10 -4 -9 -2 2 8 10 8 15 17 11 20 -3
4 -1 7 6 7 7 0 9 5 6 10 -3 6 -1 10 6 10 7 0 10 3 7 6 -3 3 11 42 32 87 84
180 173 482 209 712 39 244 91 680 91 756 0 61 -3 78 -16 83 -16 6 -116 6
-191 -1z"/>
<path d="M4340 3943 c0 -3 11 -21 25 -39 14 -18 25 -36 25 -39 0 -3 -11 -21
-25 -39 -31 -41 -31 -46 -1 -46 13 0 30 10 39 23 l15 22 19 -23 c12 -15 27
-23 41 -20 l22 3 -26 39 c-28 41 -27 50 12 104 16 21 16 22 -9 22 -16 0 -31
-10 -42 -27 l-18 -26 -14 26 c-9 18 -22 27 -38 27 -14 0 -25 -3 -25 -7z"/>
<path d="M4565 3938 c-51 -29 -61 -93 -21 -133 21 -21 33 -24 90 -23 l66 1 0
83 c0 77 -2 84 -20 84 -11 0 -20 -5 -20 -10 0 -7 -6 -7 -19 0 -25 13 -51 12
-76 -2z m75 -46 c26 -21 21 -57 -11 -67 -52 -17 -89 34 -49 67 12 10 26 18 30
18 4 0 18 -8 30 -18z"/>
<path d="M4740 3863 c0 -76 2 -83 20 -83 18 0 20 7 20 55 0 42 4 56 18 64 34
18 52 -5 52 -64 0 -48 2 -55 20 -55 18 0 20 7 20 65 0 86 -16 104 -94 102
l-56 -1 0 -83z"/>
<path d="M5220 3865 c0 -78 2 -85 20 -85 18 0 20 7 20 85 0 78 -2 85 -20 85
-18 0 -20 -7 -20 -85z"/>
<path d="M2988 3676 c-53 -19 -83 -41 -111 -78 -86 -117 -50 -284 76 -350 32
-17 59 -22 112 -22 53 0 80 5 112 22 163 86 164 330 0 413 -52 27 -140 34
-189 15z m142 -135 c53 -52 52 -131 -1 -175 -80 -68 -191 14 -165 120 11 44
59 84 101 84 27 0 44 -8 65 -29z"/>
<path d="M3380 3460 l0 -230 130 0 c150 0 189 11 220 62 27 44 27 126 1 160
-13 16 -17 29 -10 39 18 28 10 115 -13 144 -35 44 -74 55 -208 55 l-120 0 0
-230z m214 108 c17 -27 -5 -52 -48 -56 l-36 -3 0 41 0 41 36 -3 c22 -2 42 -10
48 -20z m18 -174 c18 -39 0 -58 -56 -62 l-46 -3 0 45 0 46 45 0 c39 0 47 -4
57 -26z"/>
<path d="M3820 3460 l0 -230 65 0 65 0 0 75 0 75 75 0 75 0 0 55 0 55 -75 0
-75 0 0 45 0 44 98 3 97 3 3 53 3 52 -165 0 -166 0 0 -230z"/>
<path d="M4324 3618 c-15 -40 -53 -140 -85 -223 -31 -82 -55 -153 -53 -157 3
-5 32 -8 64 -8 58 0 59 0 71 35 l13 35 74 0 73 0 15 -35 c14 -34 15 -35 74
-35 47 0 60 3 60 15 0 16 -141 389 -160 425 -9 16 -21 20 -64 20 l-54 0 -28
-72z m96 -133 c5 -14 13 -37 16 -50 6 -23 3 -25 -29 -25 l-35 0 16 50 c9 28
17 50 19 50 2 0 8 -11 13 -25z"/>
<path d="M4700 3460 l0 -230 65 0 65 0 0 230 0 230 -65 0 -65 0 0 -230z"/>
<path d="M4930 3460 l0 -230 65 0 65 0 0 75 c0 65 2 75 18 75 11 0 31 -26 57
-75 l40 -75 67 0 c40 0 68 4 68 10 0 6 -18 46 -40 89 l-39 79 21 18 c75 68 56
203 -35 245 -34 15 -66 19 -164 19 l-123 0 0 -230z m220 115 c7 -8 13 -26 13
-40 0 -38 -21 -55 -64 -55 l-39 0 0 55 0 55 39 0 c22 0 44 -6 51 -15z"/>
<path d="M1078 3313 c-49 -53 -120 -159 -159 -235 -45 -90 -129 -294 -129
-314 0 -37 140 -281 240 -419 144 -199 344 -321 579 -356 110 -16 281 -3 281
22 0 4 -18 27 -40 51 -90 95 -182 261 -214 383 -20 80 -32 163 -56 390 -13
129 -24 191 -32 194 -7 2 -44 21 -83 40 -85 44 -160 99 -270 197 -46 41 -85
74 -87 74 -2 0 -16 -12 -30 -27z"/>
</g>
</svg>
