<?xml version="1.0" encoding="UTF-8"?>
<!DOCTYPE svg PUBLIC "-//W3C//DTD SVG 1.1//EN" "http://www.w3.org/Graphics/SVG/1.1/DTD/svg11.dtd">
<svg xmlns="http://www.w3.org/2000/svg" version="1.1" width="512px" height="512px" style="shape-rendering:geometricPrecision; text-rendering:geometricPrecision; image-rendering:optimizeQuality; fill-rule:evenodd; clip-rule:evenodd" xmlns:xlink="http://www.w3.org/1999/xlink">
<g><path style="opacity:1" fill="#6c2761" d="M 327.5,8.5 C 328.5,10.1667 329.833,11.5 331.5,12.5C 331.427,14.0269 332.094,15.0269 333.5,15.5C 335.714,17.9955 336.881,20.9955 337,24.5C 337.5,35.1615 337.667,45.8281 337.5,56.5C 348.395,59.2757 357.729,64.6091 365.5,72.5C 366.262,74.2624 367.596,75.2624 369.5,75.5C 370.419,78.0892 372.086,80.0892 374.5,81.5C 375.5,81.8333 376.167,82.5 376.5,83.5C 376.427,85.0269 377.094,86.0269 378.5,86.5C 378.427,88.0269 379.094,89.0269 380.5,89.5C 380.427,91.0269 381.094,92.0269 382.5,92.5C 383.338,92.8417 383.672,93.5084 383.5,94.5C 383.427,96.0269 384.094,97.0269 385.5,97.5C 387.962,101.887 389.629,106.554 390.5,111.5C 390.41,114.152 391.076,116.485 392.5,118.5C 396.254,138.577 393.087,157.577 383,175.5C 381.054,178.42 378.887,181.087 376.5,183.5C 375.094,183.973 374.427,184.973 374.5,186.5C 369.08,193.257 362.747,198.923 355.5,203.5C 359.04,214.119 362.373,224.785 365.5,235.5C 365.715,237.179 365.048,238.179 363.5,238.5C 363.027,237.094 362.027,236.427 360.5,236.5C 358.181,236.008 356.181,235.008 354.5,233.5C 354.027,232.094 353.027,231.427 351.5,231.5C 349.847,231.34 348.514,230.674 347.5,229.5C 347.027,228.094 346.027,227.427 344.5,227.5C 342.181,227.008 340.181,226.008 338.5,224.5C 338.027,223.094 337.027,222.427 335.5,222.5C 333.847,222.34 332.514,221.674 331.5,220.5C 331.027,219.094 330.027,218.427 328.5,218.5C 325.183,217.177 321.85,215.843 318.5,214.5C 286.856,215.652 255.19,215.819 223.5,215C 212.35,214.114 202.017,210.947 192.5,205.5C 192.027,204.094 191.027,203.427 189.5,203.5C 188.508,203.672 187.842,203.338 187.5,202.5C 186.738,200.738 185.404,199.738 183.5,199.5C 181.596,199.262 180.262,198.262 179.5,196.5C 178.415,194.413 176.749,193.08 174.5,192.5C 172.833,191.5 171.5,190.167 170.5,188.5C 170.573,186.973 169.906,185.973 168.5,185.5C 167.5,185.167 166.833,184.5 166.5,183.5C 166.573,181.973 165.906,180.973 164.5,180.5C 164.446,178.368 163.446,177.035 161.5,176.5C 160.108,174.727 158.941,172.727 158,170.5C 144.965,183.702 131.798,196.702 118.5,209.5C 117.504,195.01 117.171,180.343 117.5,165.5C 115.5,165.5 113.5,165.5 111.5,165.5C 109.214,165.405 107.214,164.738 105.5,163.5C 104.738,161.738 103.404,160.738 101.5,160.5C 100.833,159.167 99.8333,158.167 98.5,157.5C 95.4625,154.94 93.6292,151.607 93,147.5C 92.3333,105.833 92.3333,64.1667 93,22.5C 93.4717,18.8895 94.9717,15.8895 97.5,13.5C 99.8333,11.8333 101.833,9.83333 103.5,7.5C 105.493,5.83681 107.826,4.67014 110.5,4C 180.167,3.33333 249.833,3.33333 319.5,4C 322.684,4.75421 325.351,6.25421 327.5,8.5 Z M 319.5,145.5 C 318.167,146.167 317.167,147.167 316.5,148.5C 315.508,148.328 314.842,148.662 314.5,149.5C 260.832,149.333 207.166,149.5 153.5,150C 147.297,156.035 141.297,162.202 135.5,168.5C 134.833,162.167 134.167,155.833 133.5,149.5C 126.411,149.884 119.411,149.384 112.5,148C 111.107,146.829 110.273,145.329 110,143.5C 109.333,104.5 109.333,65.5 110,26.5C 110.398,23.7683 111.898,21.935 114.5,21C 182.249,20.007 249.915,20.3404 317.5,22C 318.863,23.9449 319.697,26.1116 320,28.5C 320.809,67.5226 320.643,106.523 319.5,145.5 Z M 337.5,74.5 C 338.93,75.5375 340.597,76.2041 342.5,76.5C 342.973,77.9063 343.973,78.573 345.5,78.5C 345.842,79.3382 346.508,79.6716 347.5,79.5C 348.262,81.2624 349.596,82.2624 351.5,82.5C 354.167,85.8333 357.167,88.8333 360.5,91.5C 361.864,93.1911 363.197,94.8577 364.5,96.5C 364.932,97.7095 365.599,98.7095 366.5,99.5C 374.631,113.823 377.631,129.156 375.5,145.5C 374.388,147.599 373.721,149.933 373.5,152.5C 371.835,156.495 370.168,160.495 368.5,164.5C 367.094,164.973 366.427,165.973 366.5,167.5C 365.094,167.973 364.427,168.973 364.5,170.5C 362.738,171.262 361.738,172.596 361.5,174.5C 358.5,176.833 355.833,179.5 353.5,182.5C 351.596,182.738 350.262,183.738 349.5,185.5C 347.596,185.738 346.262,186.738 345.5,188.5C 344.508,188.328 343.842,188.662 343.5,189.5C 341.973,189.427 340.973,190.094 340.5,191.5C 338.847,191.66 337.514,192.326 336.5,193.5C 333.207,194.32 332.874,195.987 335.5,198.5C 335.433,199.959 335.766,201.292 336.5,202.5C 336.5,203.167 336.167,203.5 335.5,203.5C 331.121,200.644 326.454,198.31 321.5,196.5C 289.183,197.645 256.85,197.812 224.5,197C 215.688,196.006 207.355,193.506 199.5,189.5C 198.71,188.599 197.71,187.932 196.5,187.5C 191.833,183.833 187.167,180.167 182.5,176.5C 181.92,174.251 180.587,172.585 178.5,171.5C 178.573,169.973 177.906,168.973 176.5,168.5C 176.586,167.504 176.252,166.671 175.5,166C 223.668,165.833 271.668,165.333 319.5,164.5C 328.697,161.968 334.03,155.968 335.5,146.5C 336.167,122.5 336.833,98.5 337.5,74.5 Z"/></g>
<g><path style="opacity:0.008" fill="#43183c" d="M 327.5,8.5 C 329.833,8.83333 331.167,10.1667 331.5,12.5C 329.833,11.5 328.5,10.1667 327.5,8.5 Z"/></g>
<g><path style="opacity:0.957" fill="#4c1b45" d="M 103.5,7.5 C 101.833,9.83333 99.8333,11.8333 97.5,13.5C 98.5,10.5 100.5,8.5 103.5,7.5 Z"/></g>
<g><path style="opacity:0.906" fill="#511d49" d="M 331.5,12.5 C 332.906,12.9731 333.573,13.9731 333.5,15.5C 332.094,15.0269 331.427,14.0269 331.5,12.5 Z"/></g>
<g><path style="opacity:0.678" fill="#471940" d="M 279.5,52.5 C 279.5,47.1667 279.5,41.8333 279.5,36.5C 236.5,36.5 193.5,36.5 150.5,36.5C 150.5,41.8333 150.5,47.1667 150.5,52.5C 149.511,47.0247 149.178,41.358 149.5,35.5C 193.167,35.5 236.833,35.5 280.5,35.5C 280.822,41.358 280.489,47.0247 279.5,52.5 Z"/></g>
<g><path style="opacity:1" fill="#6e2763" d="M 279.5,52.5 C 236.5,52.5 193.5,52.5 150.5,52.5C 150.5,47.1667 150.5,41.8333 150.5,36.5C 193.5,36.5 236.5,36.5 279.5,36.5C 279.5,41.8333 279.5,47.1667 279.5,52.5 Z"/></g>
<g><path style="opacity:0.016" fill="#43183c" d="M 365.5,72.5 C 367.404,72.7376 368.738,73.7376 369.5,75.5C 367.596,75.2624 366.262,74.2624 365.5,72.5 Z"/></g>
<g><path style="opacity:0.706" fill="#471940" d="M 337.5,74.5 C 336.833,98.5 336.167,122.5 335.5,146.5C 335.167,122.158 335.5,97.8242 336.5,73.5C 337.107,73.6236 337.44,73.9569 337.5,74.5 Z"/></g>
<g><path style="opacity:0.953" fill="#481a40" d="M 369.5,75.5 C 371.914,76.9108 373.581,78.9108 374.5,81.5C 372.086,80.0892 370.419,78.0892 369.5,75.5 Z"/></g>
<g><path style="opacity:1" fill="#6d2762" d="M 295.5,76.5 C 295.5,81.8333 295.5,87.1667 295.5,92.5C 241.5,92.5 187.5,92.5 133.5,92.5C 133.5,87.1667 133.5,81.8333 133.5,76.5C 187.5,76.5 241.5,76.5 295.5,76.5 Z"/></g>
<g><path style="opacity:0.678" fill="#471940" d="M 342.5,76.5 C 344.027,76.427 345.027,77.0937 345.5,78.5C 343.973,78.573 342.973,77.9063 342.5,76.5 Z"/></g>
<g><path style="opacity:0.933" fill="#4e1c46" d="M 347.5,79.5 C 349.404,79.7376 350.738,80.7376 351.5,82.5C 349.596,82.2624 348.262,81.2624 347.5,79.5 Z"/></g>
<g><path style="opacity:0.992" fill="#481a41" d="M 351.5,82.5 C 355.5,84.5 358.5,87.5 360.5,91.5C 357.167,88.8333 354.167,85.8333 351.5,82.5 Z"/></g>
<g><path style="opacity:0.773" fill="#481940" d="M 376.5,83.5 C 377.906,83.9731 378.573,84.9731 378.5,86.5C 377.094,86.0269 376.427,85.0269 376.5,83.5 Z"/></g>
<g><path style="opacity:0.82" fill="#4c1b44" d="M 378.5,86.5 C 379.906,86.9731 380.573,87.9731 380.5,89.5C 379.094,89.0269 378.427,88.0269 378.5,86.5 Z"/></g>
<g><path style="opacity:0.749" fill="#4a1a42" d="M 380.5,89.5 C 381.906,89.9731 382.573,90.9731 382.5,92.5C 381.094,92.0269 380.427,91.0269 380.5,89.5 Z"/></g>
<g><path style="opacity:0.709" fill="#481a41" d="M 295.5,76.5 C 296.489,81.9753 296.822,87.642 296.5,93.5C 241.997,93.8323 187.664,93.499 133.5,92.5C 187.5,92.5 241.5,92.5 295.5,92.5C 295.5,87.1667 295.5,81.8333 295.5,76.5 Z"/></g>
<g><path style="opacity:1" fill="#511d49" d="M 364.5,96.5 C 366.048,96.8212 366.715,97.8212 366.5,99.5C 365.599,98.7095 364.932,97.7095 364.5,96.5 Z"/></g>
<g><path style="opacity:0.518" fill="#45183d" d="M 383.5,94.5 C 384.906,94.9731 385.573,95.9731 385.5,97.5C 384.094,97.0269 383.427,96.0269 383.5,94.5 Z"/></g>
<g><path style="opacity:0.467" fill="#3d1637" d="M 190.5,117.5 C 185.167,117.5 179.833,117.5 174.5,117.5C 174.5,122.833 174.5,128.167 174.5,133.5C 179.833,133.5 185.167,133.5 190.5,133.5C 185.025,134.489 179.358,134.822 173.5,134.5C 173.5,128.5 173.5,122.5 173.5,116.5C 179.358,116.178 185.025,116.511 190.5,117.5 Z"/></g>
<g><path style="opacity:1" fill="#6e2863" d="M 190.5,117.5 C 190.5,122.833 190.5,128.167 190.5,133.5C 185.167,133.5 179.833,133.5 174.5,133.5C 174.5,128.167 174.5,122.833 174.5,117.5C 179.833,117.5 185.167,117.5 190.5,117.5 Z"/></g>
<g><path style="opacity:1" fill="#6d2762" d="M 206.5,117.5 C 211.833,117.5 217.167,117.5 222.5,117.5C 222.5,122.833 222.5,128.167 222.5,133.5C 217.167,133.5 211.833,133.5 206.5,133.5C 206.5,128.167 206.5,122.833 206.5,117.5 Z"/></g>
<g><path style="opacity:0.745" fill="#42183b" d="M 206.5,117.5 C 211.975,116.511 217.642,116.178 223.5,116.5C 223.5,122.5 223.5,128.5 223.5,134.5C 217.642,134.822 211.975,134.489 206.5,133.5C 211.833,133.5 217.167,133.5 222.5,133.5C 222.5,128.167 222.5,122.833 222.5,117.5C 217.167,117.5 211.833,117.5 206.5,117.5 Z"/></g>
<g><path style="opacity:0.443" fill="#3d1637" d="M 255.5,117.5 C 250.167,117.5 244.833,117.5 239.5,117.5C 239.5,122.833 239.5,128.167 239.5,133.5C 244.833,133.5 250.167,133.5 255.5,133.5C 250.025,134.489 244.358,134.822 238.5,134.5C 238.5,128.5 238.5,122.5 238.5,116.5C 244.358,116.178 250.025,116.511 255.5,117.5 Z"/></g>
<g><path style="opacity:1" fill="#6e2864" d="M 255.5,117.5 C 255.5,122.833 255.5,128.167 255.5,133.5C 250.167,133.5 244.833,133.5 239.5,133.5C 239.5,128.167 239.5,122.833 239.5,117.5C 244.833,117.5 250.167,117.5 255.5,117.5 Z"/></g>
<g><path style="opacity:0.816" fill="#4b1b43" d="M 390.5,111.5 C 391.924,113.515 392.59,115.848 392.5,118.5C 391.076,116.485 390.41,114.152 390.5,111.5 Z"/></g>
<g><path style="opacity:0.886" fill="#491a41" d="M 319.5,145.5 C 319.5,147.5 318.5,148.5 316.5,148.5C 317.167,147.167 318.167,146.167 319.5,145.5 Z"/></g>
<g><path style="opacity:0.184" fill="#3a1534" d="M 133.5,149.5 C 134.167,155.833 134.833,162.167 135.5,168.5C 135.5,168.833 135.5,169.167 135.5,169.5C 134.883,169.611 134.383,169.944 134,170.5C 133.5,163.508 133.334,156.508 133.5,149.5 Z"/></g>
<g><path style="opacity:0.89" fill="#521d4a" d="M 314.5,149.5 C 261.335,150.333 208.002,150.833 154.5,151C 148.298,157.369 141.965,163.536 135.5,169.5C 135.5,169.167 135.5,168.833 135.5,168.5C 141.297,162.202 147.297,156.035 153.5,150C 207.166,149.5 260.832,149.333 314.5,149.5 Z"/></g>
<g><path style="opacity:1" fill="#501c48" d="M 375.5,145.5 C 375.829,148.228 375.163,150.562 373.5,152.5C 373.721,149.933 374.388,147.599 375.5,145.5 Z"/></g>
<g><path style="opacity:0.008" fill="#41173b" d="M 98.5,157.5 C 99.8333,158.167 100.833,159.167 101.5,160.5C 99.5,160.5 98.5,159.5 98.5,157.5 Z"/></g>
<g><path style="opacity:0.953" fill="#4f1c47" d="M 101.5,160.5 C 103.404,160.738 104.738,161.738 105.5,163.5C 103.596,163.262 102.262,162.262 101.5,160.5 Z"/></g>
<g><path style="opacity:0.961" fill="#5a2051" d="M 319.5,164.5 C 271.668,165.333 223.668,165.833 175.5,166C 176.252,166.671 176.586,167.504 176.5,168.5C 174.896,167.713 174.229,166.38 174.5,164.5C 222.833,164.5 271.167,164.5 319.5,164.5 Z"/></g>
<g><path style="opacity:0.286" fill="#3d1637" d="M 111.5,165.5 C 113.5,165.5 115.5,165.5 117.5,165.5C 117.171,180.343 117.504,195.01 118.5,209.5C 118.44,210.043 118.107,210.376 117.5,210.5C 116.501,195.848 116.167,181.182 116.5,166.5C 114.585,166.784 112.919,166.451 111.5,165.5 Z"/></g>
<g><path style="opacity:0.639" fill="#46193f" d="M 368.5,164.5 C 368.573,166.027 367.906,167.027 366.5,167.5C 366.427,165.973 367.094,164.973 368.5,164.5 Z"/></g>
<g><path style="opacity:0.651" fill="#45183e" d="M 366.5,167.5 C 366.573,169.027 365.906,170.027 364.5,170.5C 364.427,168.973 365.094,167.973 366.5,167.5 Z"/></g>
<g><path style="opacity:0.765" fill="#471a40" d="M 176.5,168.5 C 177.906,168.973 178.573,169.973 178.5,171.5C 177.094,171.027 176.427,170.027 176.5,168.5 Z"/></g>
<g><path style="opacity:0.976" fill="#4c1b44" d="M 364.5,170.5 C 364.262,172.404 363.262,173.738 361.5,174.5C 361.738,172.596 362.738,171.262 364.5,170.5 Z"/></g>
<g><path style="opacity:0.992" fill="#4e1c46" d="M 178.5,171.5 C 180.587,172.585 181.92,174.251 182.5,176.5C 180.413,175.415 179.08,173.749 178.5,171.5 Z"/></g>
<g><path style="opacity:1" fill="#501d48" d="M 161.5,176.5 C 163.446,177.035 164.446,178.368 164.5,180.5C 163.026,179.564 162.026,178.23 161.5,176.5 Z"/></g>
<g><path style="opacity:0.008" fill="#40173a" d="M 164.5,180.5 C 165.906,180.973 166.573,181.973 166.5,183.5C 165.094,183.027 164.427,182.027 164.5,180.5 Z"/></g>
<g><path style="opacity:0.918" fill="#4c1b45" d="M 353.5,182.5 C 352.738,184.262 351.404,185.262 349.5,185.5C 350.262,183.738 351.596,182.738 353.5,182.5 Z"/></g>
<g><path style="opacity:0.016" fill="#41173b" d="M 376.5,183.5 C 376.573,185.027 375.906,186.027 374.5,186.5C 374.427,184.973 375.094,183.973 376.5,183.5 Z"/></g>
<g><path style="opacity:0.008" fill="#40173a" d="M 168.5,185.5 C 169.906,185.973 170.573,186.973 170.5,188.5C 169.094,188.027 168.427,187.027 168.5,185.5 Z"/></g>
<g><path style="opacity:0.902" fill="#4c1b45" d="M 349.5,185.5 C 348.738,187.262 347.404,188.262 345.5,188.5C 346.262,186.738 347.596,185.738 349.5,185.5 Z"/></g>
<g><path style="opacity:1" fill="#4f1c47" d="M 196.5,187.5 C 197.71,187.932 198.71,188.599 199.5,189.5C 197.821,189.715 196.821,189.048 196.5,187.5 Z"/></g>
<g><path style="opacity:0.965" fill="#4d1c45" d="M 343.5,189.5 C 343.027,190.906 342.027,191.573 340.5,191.5C 340.973,190.094 341.973,189.427 343.5,189.5 Z"/></g>
<g><path style="opacity:0.957" fill="#491a41" d="M 174.5,192.5 C 176.749,193.08 178.415,194.413 179.5,196.5C 177.251,195.92 175.585,194.587 174.5,192.5 Z"/></g>
<g><path style="opacity:1" fill="#501d48" d="M 336.5,193.5 C 335.699,195.042 335.366,196.708 335.5,198.5C 332.874,195.987 333.207,194.32 336.5,193.5 Z"/></g>
<g><path style="opacity:0.906" fill="#4c1b44" d="M 183.5,199.5 C 185.404,199.738 186.738,200.738 187.5,202.5C 185.596,202.262 184.262,201.262 183.5,199.5 Z"/></g>
<g><path style="opacity:0.476" fill="#471940" d="M 336.5,202.5 C 337.573,203.251 337.74,204.251 337,205.5C 336.283,204.956 335.783,204.289 335.5,203.5C 336.167,203.5 336.5,203.167 336.5,202.5 Z"/></g>
<g><path style="opacity:0.62" fill="#46193e" d="M 189.5,203.5 C 191.027,203.427 192.027,204.094 192.5,205.5C 190.973,205.573 189.973,204.906 189.5,203.5 Z"/></g>
<g><path style="opacity:0.639" fill="#471940" d="M 328.5,218.5 C 330.027,218.427 331.027,219.094 331.5,220.5C 329.973,220.573 328.973,219.906 328.5,218.5 Z"/></g>
<g><path style="opacity:0.557" fill="#45183e" d="M 335.5,222.5 C 337.027,222.427 338.027,223.094 338.5,224.5C 336.973,224.573 335.973,223.906 335.5,222.5 Z"/></g>
<g><path style="opacity:0.639" fill="#471940" d="M 344.5,227.5 C 346.027,227.427 347.027,228.094 347.5,229.5C 345.973,229.573 344.973,228.906 344.5,227.5 Z"/></g>
<g><path style="opacity:0.557" fill="#44183d" d="M 351.5,231.5 C 353.027,231.427 354.027,232.094 354.5,233.5C 352.973,233.573 351.973,232.906 351.5,231.5 Z"/></g>
<g><path style="opacity:0.6" fill="#46193f" d="M 360.5,236.5 C 362.027,236.427 363.027,237.094 363.5,238.5C 361.973,238.573 360.973,237.906 360.5,236.5 Z"/></g>
<g><path style="opacity:0.996" fill="#4b1b43" d="M 365.5,235.5 C 366.914,237.044 367.247,238.711 366.5,240.5C 365.261,240.058 364.261,239.391 363.5,238.5C 365.048,238.179 365.715,237.179 365.5,235.5 Z"/></g>
<g><path style="opacity:1" fill="#6b2660" d="M 165.5,272.5 C 165.973,273.906 166.973,274.573 168.5,274.5C 169.08,276.749 170.413,278.415 172.5,279.5C 174.587,280.585 175.92,282.251 176.5,284.5C 176.427,286.027 177.094,287.027 178.5,287.5C 178.427,289.027 179.094,290.027 180.5,290.5C 192.582,312.457 192.415,334.457 180,356.5C 177.63,360.597 174.797,364.264 171.5,367.5C 170.957,367.56 170.624,367.893 170.5,368.5C 171.325,369.386 172.325,369.719 173.5,369.5C 181.43,372.132 188.763,375.798 195.5,380.5C 195.821,382.048 196.821,382.715 198.5,382.5C 201.81,384.482 204.81,386.815 207.5,389.5C 207.973,390.906 208.973,391.573 210.5,391.5C 212.833,393.167 214.833,395.167 216.5,397.5C 217.08,399.749 218.413,401.415 220.5,402.5C 222.262,403.262 223.262,404.596 223.5,406.5C 223.427,408.027 224.094,409.027 225.5,409.5C 226.906,409.973 227.573,410.973 227.5,412.5C 227.427,414.027 228.094,415.027 229.5,415.5C 232.296,420.105 234.296,425.105 235.5,430.5C 235.259,432.898 235.926,434.898 237.5,436.5C 241.208,451.761 241.374,467.094 238,482.5C 234.833,495 227,502.833 214.5,506C 204.885,507.526 195.219,507.859 185.5,507C 164.624,503.432 143.624,500.932 122.5,499.5C 96.9777,502.004 71.4777,504.671 46,507.5C 38.0193,508.135 30.5193,506.801 23.5,503.5C 23.0269,502.094 22.0269,501.427 20.5,501.5C 18.5956,501.262 17.2623,500.262 16.5,498.5C 15.8333,497.167 14.8333,496.167 13.5,495.5C 9.72778,491.629 7.22778,486.962 6,481.5C 1.77122,459.578 4.27122,438.578 13.5,418.5C 14.9063,418.027 15.573,417.027 15.5,415.5C 17.1775,410.803 19.8442,406.803 23.5,403.5C 24.9063,403.027 25.573,402.027 25.5,400.5C 26.5,398.833 27.8333,397.5 29.5,396.5C 33.1002,394.57 36.1002,391.903 38.5,388.5C 40.7488,387.92 42.4154,386.587 43.5,384.5C 45.0269,384.573 46.0269,383.906 46.5,382.5C 48.0269,382.573 49.0269,381.906 49.5,380.5C 49.8417,379.662 50.5084,379.328 51.5,379.5C 53.0269,379.573 54.0269,378.906 54.5,377.5C 59.746,374.045 65.4126,371.378 71.5,369.5C 73.5518,368.947 73.8852,367.947 72.5,366.5C 63.6115,357.727 58.1115,347.06 56,334.5C 53.2737,318.305 56.107,303.305 64.5,289.5C 65.9063,289.027 66.573,288.027 66.5,286.5C 67.9063,286.027 68.573,285.027 68.5,283.5C 70.2624,282.738 71.2624,281.404 71.5,279.5C 71.8333,278.5 72.5,277.833 73.5,277.5C 77.1002,275.57 80.1002,272.903 82.5,269.5C 84.1475,267.674 86.1475,266.34 88.5,265.5C 90.0269,265.573 91.0269,264.906 91.5,263.5C 116.079,251.859 139.746,253.692 162.5,269C 163.71,270.039 164.71,271.206 165.5,272.5 Z M 129.5,272.5 C 131.599,273.612 133.933,274.279 136.5,274.5C 139.007,275.892 141.673,276.892 144.5,277.5C 144.973,278.906 145.973,279.573 147.5,279.5C 147.842,280.338 148.508,280.672 149.5,280.5C 150.262,282.262 151.596,283.262 153.5,283.5C 167.715,296.811 173.382,313.144 170.5,332.5C 169.542,334.302 168.875,336.302 168.5,338.5C 166.562,342.043 164.895,345.71 163.5,349.5C 161.738,350.262 160.738,351.596 160.5,353.5C 159.5,353.833 158.833,354.5 158.5,355.5C 156.167,357.167 154.167,359.167 152.5,361.5C 150.596,361.738 149.262,362.738 148.5,364.5C 128.03,375.523 108.363,374.19 89.5,360.5C 87.1667,357.5 84.5,354.833 81.5,352.5C 81.573,350.973 80.9063,349.973 79.5,349.5C 79.573,347.973 78.9063,346.973 77.5,346.5C 66.6608,322.196 70.9941,301.029 90.5,283C 102.063,274.384 115.063,270.884 129.5,272.5 Z M 180.5,390.5 C 180.973,391.906 181.973,392.573 183.5,392.5C 183.842,393.338 184.508,393.672 185.5,393.5C 185.973,394.906 186.973,395.573 188.5,395.5C 188.973,396.906 189.973,397.573 191.5,397.5C 191.973,398.906 192.973,399.573 194.5,399.5C 194.833,400.5 195.5,401.167 196.5,401.5C 197.585,403.587 199.251,404.92 201.5,405.5C 202.167,406.833 203.167,407.833 204.5,408.5C 204.427,410.027 205.094,411.027 206.5,411.5C 207.864,413.191 209.197,414.858 210.5,416.5C 211.026,418.23 212.026,419.564 213.5,420.5C 223.741,440.421 225.741,461.087 219.5,482.5C 217.5,483.833 215.833,485.5 214.5,487.5C 205.619,489.471 196.619,489.971 187.5,489C 165.828,485.062 143.995,482.562 122,481.5C 96.58,483.417 71.2467,486.084 46,489.5C 35.9467,491.314 28.4467,487.98 23.5,479.5C 23.2785,476.933 22.6118,474.599 21.5,472.5C 17.9564,435.078 32.6231,407.578 65.5,390C 72.9647,386.345 80.6314,383.178 88.5,380.5C 111.003,392.473 133.503,392.473 156,380.5C 164.245,383.708 172.411,387.041 180.5,390.5 Z"/></g>
<g><path style="opacity:1" fill="#6b2660" d="M 422.5,264.5 C 422.821,266.048 423.821,266.715 425.5,266.5C 426.035,268.446 427.368,269.446 429.5,269.5C 433.12,271.453 436.12,274.119 438.5,277.5C 439.08,279.749 440.413,281.415 442.5,282.5C 442.738,284.404 443.738,285.738 445.5,286.5C 446.338,286.842 446.672,287.508 446.5,288.5C 446.427,290.027 447.094,291.027 448.5,291.5C 450.931,295.111 452.597,299.111 453.5,303.5C 453.294,306.495 453.96,309.162 455.5,311.5C 459.019,333.109 453.352,351.942 438.5,368C 456.958,374.546 472.624,385.046 485.5,399.5C 486.08,401.749 487.413,403.415 489.5,404.5C 489.738,406.404 490.738,407.738 492.5,408.5C 492.427,410.027 493.094,411.027 494.5,411.5C 495.674,412.514 496.34,413.847 496.5,415.5C 496.427,417.027 497.094,418.027 498.5,418.5C 506.777,436.6 509.61,455.6 507,475.5C 504.612,493.554 494.445,504.054 476.5,507C 468.5,507.667 460.5,507.667 452.5,507C 431.637,503.329 410.637,500.829 389.5,499.5C 367.721,501.016 346.055,503.516 324.5,507C 316.421,507.8 308.421,507.633 300.5,506.5C 298.485,505.076 296.152,504.41 293.5,504.5C 291.181,504.008 289.181,503.008 287.5,501.5C 286.738,499.738 285.404,498.738 283.5,498.5C 278.847,494.547 275.68,489.547 274,483.5C 270.05,464.255 271.05,445.255 277,426.5C 278.337,422.493 280.17,418.827 282.5,415.5C 283.906,415.027 284.573,414.027 284.5,412.5C 285.906,412.027 286.573,411.027 286.5,409.5C 287.906,409.027 288.573,408.027 288.5,406.5C 289.906,406.027 290.573,405.027 290.5,403.5C 290.833,402.5 291.5,401.833 292.5,401.5C 294.587,400.415 295.92,398.749 296.5,396.5C 299.427,395.243 301.761,393.243 303.5,390.5C 305.949,387.444 308.949,385.111 312.5,383.5C 314.027,383.573 315.027,382.906 315.5,381.5C 317.027,381.573 318.027,380.906 318.5,379.5C 318.842,378.662 319.508,378.328 320.5,378.5C 322.027,378.573 323.027,377.906 323.5,376.5C 328.07,373.384 333.07,371.05 338.5,369.5C 339.5,369.5 340.5,369.5 341.5,369.5C 341.715,367.821 341.048,366.821 339.5,366.5C 338.5,366.167 337.833,365.5 337.5,364.5C 337.573,362.973 336.906,361.973 335.5,361.5C 323.562,345.535 319.895,327.868 324.5,308.5C 325.924,306.485 326.59,304.152 326.5,301.5C 326.98,298.557 327.98,295.89 329.5,293.5C 330.906,293.027 331.573,292.027 331.5,290.5C 331.328,289.508 331.662,288.842 332.5,288.5C 333.906,288.027 334.573,287.027 334.5,285.5C 336.262,284.738 337.262,283.404 337.5,281.5C 339.262,280.738 340.262,279.404 340.5,277.5C 340.833,276.5 341.5,275.833 342.5,275.5C 344.749,274.92 346.415,273.587 347.5,271.5C 349.749,270.92 351.415,269.587 352.5,267.5C 354.027,267.573 355.027,266.906 355.5,265.5C 360.555,261.812 366.221,259.478 372.5,258.5C 375.495,258.706 378.162,258.04 380.5,256.5C 395.414,254.447 409.414,257.113 422.5,264.5 Z M 414.5,278.5 C 414.973,279.906 415.973,280.573 417.5,280.5C 417.973,281.906 418.973,282.573 420.5,282.5C 422.833,285.5 425.5,288.167 428.5,290.5C 428.427,292.027 429.094,293.027 430.5,293.5C 441.249,310.58 442.249,328.246 433.5,346.5C 432.094,346.973 431.427,347.973 431.5,349.5C 430.094,349.973 429.427,350.973 429.5,352.5C 425.833,355.5 422.5,358.833 419.5,362.5C 417.973,362.427 416.973,363.094 416.5,364.5C 399.245,374.17 381.912,374.503 364.5,365.5C 363.71,364.599 362.71,363.932 361.5,363.5C 360.71,362.599 359.71,361.932 358.5,361.5C 355.833,358.167 352.833,355.167 349.5,352.5C 349.573,350.973 348.906,349.973 347.5,349.5C 347.573,347.973 346.906,346.973 345.5,346.5C 333.483,316.718 341.15,293.551 368.5,277C 384.065,270.681 399.398,271.181 414.5,278.5 Z M 357.5,380.5 C 357.973,381.906 358.973,382.573 360.5,382.5C 361.93,383.537 363.597,384.204 365.5,384.5C 367.214,385.738 369.214,386.405 371.5,386.5C 389.464,391.367 406.797,389.367 423.5,380.5C 433.087,383.961 442.42,387.961 451.5,392.5C 451.973,393.906 452.973,394.573 454.5,394.5C 454.973,395.906 455.973,396.573 457.5,396.5C 457.973,397.906 458.973,398.573 460.5,398.5C 467.203,404.202 473.203,410.536 478.5,417.5C 478.932,418.71 479.599,419.71 480.5,420.5C 491.392,440.761 493.225,461.761 486,483.5C 484.269,485.617 482.102,487.117 479.5,488C 471.579,489.568 463.579,489.901 455.5,489C 433.826,485.094 411.992,482.594 390,481.5C 367.683,482.644 345.517,485.144 323.5,489C 314.698,490.002 306.031,489.502 297.5,487.5C 297.027,486.094 296.027,485.427 294.5,485.5C 284.34,458.471 288.173,433.471 306,410.5C 320.328,395.749 337.494,385.749 357.5,380.5 Z"/></g>
<g><path style="opacity:1" fill="#511d49" d="M 380.5,256.5 C 378.162,258.04 375.495,258.706 372.5,258.5C 374.905,257.232 377.572,256.565 380.5,256.5 Z"/></g>
<g><path style="opacity:0.949" fill="#4b1b43" d="M 91.5,263.5 C 91.0269,264.906 90.0269,265.573 88.5,265.5C 88.9731,264.094 89.9731,263.427 91.5,263.5 Z"/></g>
<g><path style="opacity:1" fill="#501d48" d="M 422.5,264.5 C 423.71,264.932 424.71,265.599 425.5,266.5C 423.821,266.715 422.821,266.048 422.5,264.5 Z"/></g>
<g><path style="opacity:0.933" fill="#4a1a42" d="M 355.5,265.5 C 355.027,266.906 354.027,267.573 352.5,267.5C 352.973,266.094 353.973,265.427 355.5,265.5 Z"/></g>
<g><path style="opacity:1" fill="#511d49" d="M 425.5,266.5 C 427.23,267.026 428.564,268.026 429.5,269.5C 427.368,269.446 426.035,268.446 425.5,266.5 Z"/></g>
<g><path style="opacity:1" fill="#561f4e" d="M 352.5,267.5 C 351.415,269.587 349.749,270.92 347.5,271.5C 348.585,269.413 350.251,268.08 352.5,267.5 Z"/></g>
<g><path style="opacity:0.996" fill="#4d1b45" d="M 129.5,272.5 C 132.228,272.171 134.562,272.837 136.5,274.5C 133.933,274.279 131.599,273.612 129.5,272.5 Z"/></g>
<g><path style="opacity:0.031" fill="#42173b" d="M 165.5,272.5 C 167.027,272.427 168.027,273.094 168.5,274.5C 166.973,274.573 165.973,273.906 165.5,272.5 Z"/></g>
<g><path style="opacity:0.98" fill="#511d49" d="M 347.5,271.5 C 346.415,273.587 344.749,274.92 342.5,275.5C 343.585,273.413 345.251,272.08 347.5,271.5 Z"/></g>
<g><path style="opacity:0.949" fill="#491a42" d="M 168.5,274.5 C 170.587,275.585 171.92,277.251 172.5,279.5C 170.413,278.415 169.08,276.749 168.5,274.5 Z"/></g>
<g><path style="opacity:1" fill="#5b2152" d="M 82.5,269.5 C 80.1002,272.903 77.1002,275.57 73.5,277.5C 75.8998,274.097 78.8998,271.43 82.5,269.5 Z"/></g>
<g><path style="opacity:0.6" fill="#45193e" d="M 144.5,277.5 C 146.027,277.427 147.027,278.094 147.5,279.5C 145.973,279.573 144.973,278.906 144.5,277.5 Z"/></g>
<g><path style="opacity:0.949" fill="#491a42" d="M 340.5,277.5 C 340.262,279.404 339.262,280.738 337.5,281.5C 337.738,279.596 338.738,278.262 340.5,277.5 Z"/></g>
<g><path style="opacity:0.988" fill="#4d1b45" d="M 438.5,277.5 C 440.587,278.585 441.92,280.251 442.5,282.5C 440.413,281.415 439.08,279.749 438.5,277.5 Z"/></g>
<g><path style="opacity:0.745" fill="#491a41" d="M 414.5,278.5 C 416.027,278.427 417.027,279.094 417.5,280.5C 415.973,280.573 414.973,279.906 414.5,278.5 Z"/></g>
<g><path style="opacity:0.996" fill="#4f1c48" d="M 149.5,280.5 C 151.404,280.738 152.738,281.738 153.5,283.5C 151.596,283.262 150.262,282.262 149.5,280.5 Z"/></g>
<g><path style="opacity:0.894" fill="#4b1b43" d="M 71.5,279.5 C 71.2624,281.404 70.2624,282.738 68.5,283.5C 68.7376,281.596 69.7376,280.262 71.5,279.5 Z"/></g>
<g><path style="opacity:0.875" fill="#4d1b45" d="M 417.5,280.5 C 419.027,280.427 420.027,281.094 420.5,282.5C 418.973,282.573 417.973,281.906 417.5,280.5 Z"/></g>
<g><path style="opacity:0.996" fill="#511d49" d="M 337.5,281.5 C 337.262,283.404 336.262,284.738 334.5,285.5C 334.738,283.596 335.738,282.262 337.5,281.5 Z"/></g>
<g><path style="opacity:0.925" fill="#4d1b45" d="M 442.5,282.5 C 444.262,283.262 445.262,284.596 445.5,286.5C 443.738,285.738 442.738,284.404 442.5,282.5 Z"/></g>
<g><path style="opacity:0.855" fill="#4d1b45" d="M 68.5,283.5 C 68.573,285.027 67.9063,286.027 66.5,286.5C 66.427,284.973 67.0937,283.973 68.5,283.5 Z"/></g>
<g><path style="opacity:0.902" fill="#501d48" d="M 176.5,284.5 C 177.906,284.973 178.573,285.973 178.5,287.5C 177.094,287.027 176.427,286.027 176.5,284.5 Z"/></g>
<g><path style="opacity:0.788" fill="#4a1a43" d="M 334.5,285.5 C 334.573,287.027 333.906,288.027 332.5,288.5C 332.427,286.973 333.094,285.973 334.5,285.5 Z"/></g>
<g><path style="opacity:0.776" fill="#4a1a43" d="M 66.5,286.5 C 66.573,288.027 65.9063,289.027 64.5,289.5C 64.427,287.973 65.0937,286.973 66.5,286.5 Z"/></g>
<g><path style="opacity:0.769" fill="#4b1b44" d="M 178.5,287.5 C 179.906,287.973 180.573,288.973 180.5,290.5C 179.094,290.027 178.427,289.027 178.5,287.5 Z"/></g>
<g><path style="opacity:0.725" fill="#491a42" d="M 446.5,288.5 C 447.906,288.973 448.573,289.973 448.5,291.5C 447.094,291.027 446.427,290.027 446.5,288.5 Z"/></g>
<g><path style="opacity:0.008" fill="#41173a" d="M 428.5,290.5 C 429.906,290.973 430.573,291.973 430.5,293.5C 429.094,293.027 428.427,292.027 428.5,290.5 Z"/></g>
<g><path style="opacity:0.58" fill="#46193f" d="M 331.5,290.5 C 331.573,292.027 330.906,293.027 329.5,293.5C 329.427,291.973 330.094,290.973 331.5,290.5 Z"/></g>
<g><path style="opacity:0.969" fill="#541e4b" d="M 326.5,301.5 C 326.59,304.152 325.924,306.485 324.5,308.5C 324.41,305.848 325.076,303.515 326.5,301.5 Z"/></g>
<g><path style="opacity:0.859" fill="#4d1b45" d="M 453.5,303.5 C 454.768,305.905 455.435,308.572 455.5,311.5C 453.96,309.162 453.294,306.495 453.5,303.5 Z"/></g>
<g><path style="opacity:1" fill="#501d48" d="M 170.5,332.5 C 170.946,335.01 170.28,337.01 168.5,338.5C 168.875,336.302 169.542,334.302 170.5,332.5 Z"/></g>
<g><path style="opacity:0.667" fill="#471940" d="M 77.5,346.5 C 78.9063,346.973 79.573,347.973 79.5,349.5C 78.0937,349.027 77.427,348.027 77.5,346.5 Z"/></g>
<g><path style="opacity:0.659" fill="#47193f" d="M 345.5,346.5 C 346.906,346.973 347.573,347.973 347.5,349.5C 346.094,349.027 345.427,348.027 345.5,346.5 Z"/></g>
<g><path style="opacity:0.69" fill="#471940" d="M 433.5,346.5 C 433.573,348.027 432.906,349.027 431.5,349.5C 431.427,347.973 432.094,346.973 433.5,346.5 Z"/></g>
<g><path style="opacity:0.753" fill="#471940" d="M 79.5,349.5 C 80.9063,349.973 81.573,350.973 81.5,352.5C 80.0937,352.027 79.427,351.027 79.5,349.5 Z"/></g>
<g><path style="opacity:0.906" fill="#4b1b44" d="M 163.5,349.5 C 163.262,351.404 162.262,352.738 160.5,353.5C 160.738,351.596 161.738,350.262 163.5,349.5 Z"/></g>
<g><path style="opacity:0.702" fill="#45193f" d="M 347.5,349.5 C 348.906,349.973 349.573,350.973 349.5,352.5C 348.094,352.027 347.427,351.027 347.5,349.5 Z"/></g>
<g><path style="opacity:0.773" fill="#471940" d="M 431.5,349.5 C 431.573,351.027 430.906,352.027 429.5,352.5C 429.427,350.973 430.094,349.973 431.5,349.5 Z"/></g>
<g><path style="opacity:0.992" fill="#4a1b43" d="M 81.5,352.5 C 84.5,354.833 87.1667,357.5 89.5,360.5C 85.8333,358.833 83.1667,356.167 81.5,352.5 Z"/></g>
<g><path style="opacity:0.984" fill="#481a40" d="M 349.5,352.5 C 352.833,355.167 355.833,358.167 358.5,361.5C 354.5,359.5 351.5,356.5 349.5,352.5 Z"/></g>
<g><path style="opacity:0.988" fill="#541e4c" d="M 158.5,355.5 C 157.5,358.5 155.5,360.5 152.5,361.5C 154.167,359.167 156.167,357.167 158.5,355.5 Z"/></g>
<g><path style="opacity:0.961" fill="#501d48" d="M 429.5,352.5 C 427.167,356.833 423.833,360.167 419.5,362.5C 422.5,358.833 425.833,355.5 429.5,352.5 Z"/></g>
<g><path style="opacity:0.941" fill="#4f1c47" d="M 152.5,361.5 C 151.738,363.262 150.404,364.262 148.5,364.5C 149.262,362.738 150.596,361.738 152.5,361.5 Z"/></g>
<g><path style="opacity:0.008" fill="#41173a" d="M 335.5,361.5 C 336.906,361.973 337.573,362.973 337.5,364.5C 336.094,364.027 335.427,363.027 335.5,361.5 Z"/></g>
<g><path style="opacity:0.976" fill="#501d47" d="M 419.5,362.5 C 419.027,363.906 418.027,364.573 416.5,364.5C 416.973,363.094 417.973,362.427 419.5,362.5 Z"/></g>
<g><path style="opacity:1" fill="#511d49" d="M 361.5,363.5 C 362.71,363.932 363.71,364.599 364.5,365.5C 362.821,365.715 361.821,365.048 361.5,363.5 Z"/></g>
<g><path style="opacity:0.757" fill="#42183c" d="M 72.5,366.5 C 73.8852,367.947 73.5518,368.947 71.5,369.5C 72.1098,368.609 72.4431,367.609 72.5,366.5 Z"/></g>
<g><path style="opacity:0.008" fill="#401639" d="M 171.5,367.5 C 172.167,368.167 172.833,368.833 173.5,369.5C 172.325,369.719 171.325,369.386 170.5,368.5C 170.624,367.893 170.957,367.56 171.5,367.5 Z"/></g>
<g><path style="opacity:0.945" fill="#4f1c47" d="M 339.5,366.5 C 341.048,366.821 341.715,367.821 341.5,369.5C 340.5,369.5 339.5,369.5 338.5,369.5C 338.918,368.778 339.584,368.278 340.5,368C 339.944,367.617 339.611,367.117 339.5,366.5 Z"/></g>
<g><path style="opacity:0.949" fill="#4b1b43" d="M 323.5,376.5 C 323.027,377.906 322.027,378.573 320.5,378.5C 320.973,377.094 321.973,376.427 323.5,376.5 Z"/></g>
<g><path style="opacity:0.98" fill="#4f1c47" d="M 54.5,377.5 C 54.0269,378.906 53.0269,379.573 51.5,379.5C 51.9731,378.094 52.9731,377.427 54.5,377.5 Z"/></g>
<g><path style="opacity:0.976" fill="#4f1c47" d="M 318.5,379.5 C 318.027,380.906 317.027,381.573 315.5,381.5C 315.973,380.094 316.973,379.427 318.5,379.5 Z"/></g>
<g><path style="opacity:0.965" fill="#4d1b45" d="M 49.5,380.5 C 49.0269,381.906 48.0269,382.573 46.5,382.5C 46.9731,381.094 47.9731,380.427 49.5,380.5 Z"/></g>
<g><path style="opacity:1" fill="#511d49" d="M 195.5,380.5 C 196.71,380.932 197.71,381.599 198.5,382.5C 196.821,382.715 195.821,382.048 195.5,380.5 Z"/></g>
<g><path style="opacity:0.576" fill="#45183e" d="M 357.5,380.5 C 359.027,380.427 360.027,381.094 360.5,382.5C 358.973,382.573 357.973,381.906 357.5,380.5 Z"/></g>
<g><path style="opacity:0.984" fill="#511d49" d="M 315.5,381.5 C 315.027,382.906 314.027,383.573 312.5,383.5C 312.973,382.094 313.973,381.427 315.5,381.5 Z"/></g>
<g><path style="opacity:0.969" fill="#4e1c46" d="M 46.5,382.5 C 46.0269,383.906 45.0269,384.573 43.5,384.5C 43.9731,383.094 44.9731,382.427 46.5,382.5 Z"/></g>
<g><path style="opacity:1" fill="#511d49" d="M 365.5,384.5 C 367.898,384.259 369.898,384.926 371.5,386.5C 369.214,386.405 367.214,385.738 365.5,384.5 Z"/></g>
<g><path style="opacity:1" fill="#551e4c" d="M 43.5,384.5 C 42.4154,386.587 40.7488,387.92 38.5,388.5C 39.5846,386.413 41.2512,385.08 43.5,384.5 Z"/></g>
<g><path style="opacity:0.008" fill="#41173a" d="M 207.5,389.5 C 209.027,389.427 210.027,390.094 210.5,391.5C 208.973,391.573 207.973,390.906 207.5,389.5 Z"/></g>
<g><path style="opacity:0.643" fill="#471940" d="M 180.5,390.5 C 182.027,390.427 183.027,391.094 183.5,392.5C 181.973,392.573 180.973,391.906 180.5,390.5 Z"/></g>
<g><path style="opacity:0.976" fill="#511d48" d="M 303.5,390.5 C 301.761,393.243 299.427,395.243 296.5,396.5C 298.239,393.757 300.573,391.757 303.5,390.5 Z"/></g>
<g><path style="opacity:0.78" fill="#4b1a43" d="M 451.5,392.5 C 453.027,392.427 454.027,393.094 454.5,394.5C 452.973,394.573 451.973,393.906 451.5,392.5 Z"/></g>
<g><path style="opacity:0.639" fill="#46193f" d="M 185.5,393.5 C 187.027,393.427 188.027,394.094 188.5,395.5C 186.973,395.573 185.973,394.906 185.5,393.5 Z"/></g>
<g><path style="opacity:1" fill="#5b2152" d="M 38.5,388.5 C 36.1002,391.903 33.1002,394.57 29.5,396.5C 31.8998,393.097 34.8998,390.43 38.5,388.5 Z"/></g>
<g><path style="opacity:0.714" fill="#481940" d="M 454.5,394.5 C 456.027,394.427 457.027,395.094 457.5,396.5C 455.973,396.573 454.973,395.906 454.5,394.5 Z"/></g>
<g><path style="opacity:0.659" fill="#45183e" d="M 188.5,395.5 C 190.027,395.427 191.027,396.094 191.5,397.5C 189.973,397.573 188.973,396.906 188.5,395.5 Z"/></g>
<g><path style="opacity:0.78" fill="#491a41" d="M 457.5,396.5 C 459.027,396.427 460.027,397.094 460.5,398.5C 458.973,398.573 457.973,397.906 457.5,396.5 Z"/></g>
<g><path style="opacity:0.867" fill="#4b1b44" d="M 191.5,397.5 C 193.027,397.427 194.027,398.094 194.5,399.5C 192.973,399.573 191.973,398.906 191.5,397.5 Z"/></g>
<g><path style="opacity:0.969" fill="#4a1a42" d="M 216.5,397.5 C 218.587,398.585 219.92,400.251 220.5,402.5C 218.413,401.415 217.08,399.749 216.5,397.5 Z"/></g>
<g><path style="opacity:0.933" fill="#4e1c46" d="M 296.5,396.5 C 295.92,398.749 294.587,400.415 292.5,401.5C 293.08,399.251 294.413,397.585 296.5,396.5 Z"/></g>
<g><path style="opacity:0.992" fill="#4d1b45" d="M 485.5,399.5 C 487.587,400.585 488.92,402.251 489.5,404.5C 487.413,403.415 486.08,401.749 485.5,399.5 Z"/></g>
<g><path style="opacity:0.961" fill="#4b1b44" d="M 25.5,400.5 C 25.573,402.027 24.9063,403.027 23.5,403.5C 23.427,401.973 24.0937,400.973 25.5,400.5 Z"/></g>
<g><path style="opacity:0.945" fill="#471940" d="M 196.5,401.5 C 198.749,402.08 200.415,403.413 201.5,405.5C 199.251,404.92 197.585,403.587 196.5,401.5 Z"/></g>
<g><path style="opacity:0.82" fill="#4a1a42" d="M 290.5,403.5 C 290.573,405.027 289.906,406.027 288.5,406.5C 288.427,404.973 289.094,403.973 290.5,403.5 Z"/></g>
<g><path style="opacity:0.918" fill="#4c1b45" d="M 489.5,404.5 C 491.262,405.262 492.262,406.596 492.5,408.5C 490.738,407.738 489.738,406.404 489.5,404.5 Z"/></g>
<g><path style="opacity:0.906" fill="#501d48" d="M 223.5,406.5 C 224.906,406.973 225.573,407.973 225.5,409.5C 224.094,409.027 223.427,408.027 223.5,406.5 Z"/></g>
<g><path style="opacity:0.906" fill="#501c48" d="M 288.5,406.5 C 288.573,408.027 287.906,409.027 286.5,409.5C 286.427,407.973 287.094,406.973 288.5,406.5 Z"/></g>
<g><path style="opacity:0.008" fill="#401739" d="M 204.5,408.5 C 205.906,408.973 206.573,409.973 206.5,411.5C 205.094,411.027 204.427,410.027 204.5,408.5 Z"/></g>
<g><path style="opacity:0.616" fill="#45183e" d="M 492.5,408.5 C 493.906,408.973 494.573,409.973 494.5,411.5C 493.094,411.027 492.427,410.027 492.5,408.5 Z"/></g>
<g><path style="opacity:0.851" fill="#4e1c46" d="M 286.5,409.5 C 286.573,411.027 285.906,412.027 284.5,412.5C 284.427,410.973 285.094,409.973 286.5,409.5 Z"/></g>
<g><path style="opacity:0.576" fill="#45183e" d="M 227.5,412.5 C 228.906,412.973 229.573,413.973 229.5,415.5C 228.094,415.027 227.427,414.027 227.5,412.5 Z"/></g>
<g><path style="opacity:0.596" fill="#45183e" d="M 284.5,412.5 C 284.573,414.027 283.906,415.027 282.5,415.5C 282.427,413.973 283.094,412.973 284.5,412.5 Z"/></g>
<g><path style="opacity:1" fill="#501d48" d="M 210.5,416.5 C 212.446,417.035 213.446,418.368 213.5,420.5C 212.026,419.564 211.026,418.23 210.5,416.5 Z"/></g>
<g><path style="opacity:0.561" fill="#45193e" d="M 15.5,415.5 C 15.573,417.027 14.9063,418.027 13.5,418.5C 13.427,416.973 14.0937,415.973 15.5,415.5 Z"/></g>
<g><path style="opacity:1" fill="#501d48" d="M 478.5,417.5 C 480.048,417.821 480.715,418.821 480.5,420.5C 479.599,419.71 478.932,418.71 478.5,417.5 Z"/></g>
<g><path style="opacity:0.525" fill="#44183e" d="M 496.5,415.5 C 497.906,415.973 498.573,416.973 498.5,418.5C 497.094,418.027 496.427,417.027 496.5,415.5 Z"/></g>
<g><path style="opacity:1" fill="#511d49" d="M 235.5,430.5 C 236.738,432.214 237.405,434.214 237.5,436.5C 235.926,434.898 235.259,432.898 235.5,430.5 Z"/></g>
<g><path style="opacity:0.996" fill="#4f1c47" d="M 21.5,472.5 C 22.6118,474.599 23.2785,476.933 23.5,479.5C 21.8372,477.562 21.1706,475.228 21.5,472.5 Z"/></g>
<g><path style="opacity:0.773" fill="#471940" d="M 219.5,482.5 C 218.833,485.167 217.167,486.833 214.5,487.5C 215.833,485.5 217.5,483.833 219.5,482.5 Z"/></g>
<g><path style="opacity:0.008" fill="#41173a" d="M 294.5,485.5 C 296.027,485.427 297.027,486.094 297.5,487.5C 295.973,487.573 294.973,486.906 294.5,485.5 Z"/></g>
<g><path style="opacity:0.008" fill="#42173b" d="M 13.5,495.5 C 14.8333,496.167 15.8333,497.167 16.5,498.5C 14.5,498.5 13.5,497.5 13.5,495.5 Z"/></g>
<g><path style="opacity:0.922" fill="#4c1b45" d="M 283.5,498.5 C 285.404,498.738 286.738,499.738 287.5,501.5C 285.596,501.262 284.262,500.262 283.5,498.5 Z"/></g>
<g><path style="opacity:0.722" fill="#491a42" d="M 20.5,501.5 C 22.0269,501.427 23.0269,502.094 23.5,503.5C 21.9731,503.573 20.9731,502.906 20.5,501.5 Z"/></g>
<g><path style="opacity:0.914" fill="#4f1c47" d="M 293.5,504.5 C 296.152,504.41 298.485,505.076 300.5,506.5C 297.848,506.59 295.515,505.924 293.5,504.5 Z"/></g>
</svg>
