<?xml version="1.0" encoding="UTF-8"?>
<!DOCTYPE svg PUBLIC "-//W3C//DTD SVG 1.1//EN" "http://www.w3.org/Graphics/SVG/1.1/DTD/svg11.dtd">
<svg xmlns="http://www.w3.org/2000/svg" version="1.1" width="512px" height="512px" style="shape-rendering:geometricPrecision; text-rendering:geometricPrecision; image-rendering:optimizeQuality; fill-rule:evenodd; clip-rule:evenodd" xmlns:xlink="http://www.w3.org/1999/xlink">
<g><path style="opacity:1" fill="#990008" d="M 48.5,-0.5 C 186.5,-0.5 324.5,-0.5 462.5,-0.5C 488.5,6.16667 504.833,22.5 511.5,48.5C 511.5,186.5 511.5,324.5 511.5,462.5C 504.833,488.5 488.5,504.833 462.5,511.5C 324.5,511.5 186.5,511.5 48.5,511.5C 22.5,504.833 6.16667,488.5 -0.5,462.5C -0.5,324.5 -0.5,186.5 -0.5,48.5C 6.16282,22.5038 22.4962,6.17051 48.5,-0.5 Z M 59.5,39.5 C 190.167,39.3333 320.834,39.5 451.5,40C 463.333,41.1667 469.833,47.6667 471,59.5C 471.667,190.167 471.667,320.833 471,451.5C 469.833,463.333 463.333,469.833 451.5,471C 320.833,471.667 190.167,471.667 59.5,471C 47.6667,469.833 41.1667,463.333 40,451.5C 39.3333,320.833 39.3333,190.167 40,59.5C 41.3448,47.6565 47.8448,40.9898 59.5,39.5 Z"/></g>
<g><path style="opacity:1" fill="#990108" d="M 116.5,83.5 C 141.86,80.7248 158.36,91.3915 166,115.5C 169.264,140.88 158.764,157.38 134.5,165C 109.12,168.264 92.6204,157.764 85,133.5C 81.9448,108.094 92.4448,91.4278 116.5,83.5 Z"/></g>
<g><path style="opacity:1" fill="#990008" d="M 323.5,192.5 C 383.94,185.588 416.44,212.255 421,272.5C 421.5,322.499 421.667,372.499 421.5,422.5C 398.5,422.5 375.5,422.5 352.5,422.5C 352.667,385.832 352.5,349.165 352,312.5C 352.92,297.267 350.587,282.6 345,268.5C 338.146,257.821 328.313,252.487 315.5,252.5C 294.268,252.854 280.768,263.187 275,283.5C 273.065,292.388 272.065,301.388 272,310.5C 271.5,347.832 271.333,385.165 271.5,422.5C 248.833,422.5 226.167,422.5 203.5,422.5C 203.5,347.167 203.5,271.833 203.5,196.5C 226.167,196.5 248.833,196.5 271.5,196.5C 271.334,206.172 271.5,215.839 272,225.5C 279.531,212.477 290.364,203.31 304.5,198C 310.835,195.711 317.169,193.877 323.5,192.5 Z"/></g>
<g><path style="opacity:1" fill="#980108" d="M 89.5,196.5 C 113.167,196.5 136.833,196.5 160.5,196.5C 160.5,271.833 160.5,347.167 160.5,422.5C 136.833,422.5 113.167,422.5 89.5,422.5C 89.5,347.167 89.5,271.833 89.5,196.5 Z"/></g>
</svg>
