<?xml version="1.0" standalone="no"?>
<!DOCTYPE svg PUBLIC "-//W3C//DTD SVG 20010904//EN"
 "http://www.w3.org/TR/2001/REC-SVG-20010904/DTD/svg10.dtd">
<svg version="1.0" xmlns="http://www.w3.org/2000/svg"
 width="512.000000pt" height="512.000000pt" viewBox="0 0 512.000000 512.000000"
 preserveAspectRatio="xMidYMid meet">

<g transform="translate(0.000000,512.000000) scale(0.100000,-0.100000)"
fill="#000000" stroke="none">
<path d="M470 5104 c-218 -57 -399 -240 -455 -459 -13 -52 -15 -308 -15 -2085
0 -2245 -5 -2072 67 -2220 50 -104 169 -223 273 -273 145 -70 79 -67 1255 -67
1040 0 1061 0 1093 20 18 11 41 34 52 52 20 32 20 53 20 993 0 1087 6 1008
-80 1053 -43 21 -53 22 -327 22 l-283 0 0 210 0 210 282 0 c262 0 284 1 322
20 83 41 80 26 87 460 5 300 10 396 22 437 63 215 216 368 430 430 39 11 128
16 360 20 l307 5 0 -215 0 -216 -293 -3 -294 -3 -35 -27 c-69 -52 -69 -55 -66
-455 3 -404 1 -392 84 -433 38 -19 60 -20 322 -20 l282 0 0 -210 0 -210 -283
0 c-274 0 -284 -1 -327 -22 -86 -45 -80 34 -80 -1053 0 -940 0 -961 20 -993
11 -18 34 -41 52 -52 32 -19 52 -20 678 -20 716 0 700 -1 840 67 104 50 223
169 273 273 72 148 67 -25 67 2220 0 1777 -2 2033 -15 2085 -56 221 -239 404
-460 460 -87 22 -4090 22 -4175 -1z m4162 -322 c60 -30 120 -90 150 -150 l23
-47 0 -2025 0 -2025 -23 -47 c-30 -60 -90 -120 -150 -150 l-47 -23 -542 -3
-543 -2 0 760 0 760 286 0 c273 0 288 1 324 21 21 12 47 38 59 59 20 37 21 49
21 441 0 559 31 519 -402 519 l-288 0 0 159 0 160 293 3 294 3 37 29 c67 51
67 49 64 506 -3 397 -4 409 -24 437 -12 15 -36 37 -55 48 -32 19 -55 20 -374
23 -470 4 -583 -9 -753 -89 -200 -93 -348 -241 -442 -442 -72 -152 -81 -212
-87 -544 l-6 -293 -286 0 c-324 0 -336 -2 -378 -76 -22 -39 -23 -43 -23 -443
0 -392 1 -404 21 -441 12 -21 38 -47 59 -59 36 -20 51 -21 324 -21 l286 0 0
-760 0 -760 -957 2 -958 3 -47 23 c-60 30 -120 90 -150 150 l-23 47 -3 2005
c-2 1503 0 2016 9 2048 23 84 108 174 196 207 32 12 340 13 2053 12 l2015 -2
47 -23z"/>
</g>
</svg>
