<?xml version="1.0" standalone="no"?>
<!DOCTYPE svg PUBLIC "-//W3C//DTD SVG 20010904//EN"
 "http://www.w3.org/TR/2001/REC-SVG-20010904/DTD/svg10.dtd">
<svg version="1.0" xmlns="http://www.w3.org/2000/svg"
 width="512.000000pt" height="512.000000pt" viewBox="0 0 512.000000 512.000000"
 preserveAspectRatio="xMidYMid meet">

<g transform="translate(0.000000,512.000000) scale(0.100000,-0.100000)"
fill="#000000" stroke="none">
<path d="M2495 4789 c-31 -17 -2144 -2131 -2161 -2161 -51 -96 32 -228 143
-228 24 0 54 5 66 11 12 6 471 459 1020 1008 l997 996 998 -996 c548 -549
1007 -1002 1019 -1008 37 -19 107 -13 144 12 69 47 100 137 68 200 -16 31
-2128 2145 -2161 2163 -32 16 -104 18 -133 3z"/>
<path d="M879 2217 c-18 -12 -44 -38 -57 -57 l-23 -34 3 -581 c3 -578 3 -580
27 -650 93 -278 277 -461 551 -547 l75 -23 1105 0 1105 0 75 23 c274 86 458
269 551 547 24 70 24 72 27 650 l3 581 -23 34 c-72 107 -203 108 -275 1 l-23
-34 0 -522 c0 -313 -4 -544 -10 -576 -35 -184 -196 -345 -379 -379 -73 -14
-2029 -14 -2102 0 -183 34 -344 195 -379 379 -6 32 -10 263 -10 576 l0 522
-23 34 c-35 52 -82 79 -137 79 -32 0 -58 -7 -81 -23z"/>
</g>
</svg>
