<?xml version="1.0" standalone="no"?>
<!DOCTYPE svg PUBLIC "-//W3C//DTD SVG 20010904//EN"
 "http://www.w3.org/TR/2001/REC-SVG-20010904/DTD/svg10.dtd">
<svg version="1.0" xmlns="http://www.w3.org/2000/svg"
 width="512.000000pt" height="512.000000pt" viewBox="0 0 512.000000 512.000000"
 preserveAspectRatio="xMidYMid meet">

<g transform="translate(0.000000,512.000000) scale(0.100000,-0.100000)"
fill="#000000" stroke="none">
<path d="M1156 5104 c-581 -97 -1047 -567 -1141 -1148 -23 -144 -23 -2648 0
-2792 95 -585 564 -1054 1149 -1149 144 -23 2648 -23 2792 0 585 95 1054 564
1149 1149 23 144 23 2648 0 2792 -82 507 -446 934 -932 1093 -224 74 -159 71
-1625 70 -1039 -1 -1329 -4 -1392 -15z m2780 -306 c233 -53 400 -143 560 -302
167 -167 261 -350 306 -591 10 -55 13 -340 13 -1345 0 -1005 -3 -1290 -13
-1345 -45 -241 -139 -424 -306 -591 -167 -167 -350 -261 -591 -306 -102 -19
-2588 -19 -2690 0 -241 45 -424 139 -591 306 -167 167 -261 350 -306 591 -19
102 -19 2588 0 2690 42 225 135 413 282 569 185 196 427 313 695 336 50 4 648
7 1330 5 1090 -1 1249 -4 1311 -17z"/>
<path d="M3885 4445 c-98 -26 -200 -104 -251 -191 -65 -111 -72 -267 -17 -385
40 -85 117 -162 202 -202 82 -39 205 -49 290 -23 215 64 344 289 287 501 -60
226 -288 360 -511 300z m181 -329 c37 -37 44 -74 22 -120 -23 -51 -96 -74
-147 -47 -71 38 -70 148 1 188 43 23 87 16 124 -21z"/>
<path d="M2330 3945 c-596 -104 -1056 -568 -1155 -1165 -19 -109 -19 -331 0
-440 100 -602 563 -1065 1165 -1165 109 -19 331 -19 440 0 602 100 1065 563
1165 1165 19 109 19 331 0 440 -100 602 -563 1065 -1165 1165 -104 18 -347 17
-450 0z m349 -300 c369 -28 729 -292 883 -647 146 -337 113 -732 -87 -1038
-63 -96 -219 -252 -315 -315 -422 -276 -984 -226 -1349 120 -248 235 -367 547
-339 890 42 525 465 949 991 994 51 4 103 6 117 5 14 -2 58 -6 99 -9z"/>
</g>
</svg>
