<?xml version="1.0" standalone="no"?>
<!DOCTYPE svg PUBLIC "-//W3C//DTD SVG 20010904//EN"
 "http://www.w3.org/TR/2001/REC-SVG-20010904/DTD/svg10.dtd">
<svg version="1.0" xmlns="http://www.w3.org/2000/svg"
 width="512.000000pt" height="512.000000pt" viewBox="0 0 512.000000 512.000000"
 preserveAspectRatio="xMidYMid meet">

<g transform="translate(0.000000,512.000000) scale(0.100000,-0.100000)"
fill="#000000" stroke="none">
<path d="M735 4606 c-132 -33 -235 -136 -271 -268 -20 -76 -21 -2127 0 -2203
16 -60 37 -102 71 -143 l26 -31 -31 -16 c-45 -23 -108 -92 -137 -150 -61 -119
-393 -909 -393 -933 0 -44 26 -129 54 -176 36 -61 117 -131 184 -158 l57 -23
2265 0 2265 0 60 24 c120 49 213 172 230 308 6 46 -1 67 -178 478 -101 237
-196 453 -210 480 -28 56 -95 128 -139 151 l-28 14 34 45 c19 24 42 68 53 97
17 50 18 109 18 1138 l0 1085 -24 60 c-33 82 -124 173 -206 206 l-60 24 -1795
2 c-1401 1 -1806 -1 -1845 -11z m3650 -155 c22 -10 54 -34 72 -52 67 -71 63 1
63 -1166 0 -1009 -1 -1060 -19 -1098 -10 -22 -34 -54 -52 -72 -72 -68 77 -63
-1889 -63 -1966 0 -1817 -5 -1889 63 -18 18 -42 50 -52 72 -18 38 -19 89 -19
1098 0 1167 -4 1095 63 1166 18 18 50 42 72 52 38 18 107 19 1825 19 1718 0
1787 -1 1825 -19z m114 -2627 c32 -16 62 -41 77 -64 18 -28 354 -793 354 -807
0 -2 -1066 -3 -2370 -3 -1304 0 -2370 1 -2370 3 0 14 336 779 354 807 15 23
45 48 77 64 l53 26 1886 0 1886 0 53 -26z m-2459 -1099 l0 -75 -847 0 c-567 0
-861 4 -886 11 -43 12 -111 68 -133 111 l-15 28 941 0 940 0 0 -75z m900 0 l0
-75 -380 0 -380 0 0 75 0 75 380 0 380 0 0 -75z m2006 47 c-22 -43 -90 -99
-133 -111 -25 -7 -319 -11 -885 -11 l-848 0 0 75 0 75 940 0 941 0 -15 -28z"/>
<path d="M681 1683 c-23 -19 -161 -331 -161 -364 0 -11 11 -31 25 -44 24 -25
27 -25 198 -25 156 0 177 2 198 19 32 26 32 86 0 112 -19 16 -40 19 -127 19
-57 0 -104 2 -104 4 0 2 13 35 29 73 l29 68 1792 0 1792 0 29 -68 c16 -38 29
-71 29 -73 0 -2 -729 -4 -1620 -4 l-1621 0 -24 -25 c-14 -13 -25 -36 -25 -50
0 -14 11 -37 25 -50 l24 -25 1691 0 1691 0 24 25 c14 13 25 33 25 44 0 33
-138 345 -161 364 -20 16 -124 17 -1879 17 -1755 0 -1859 -1 -1879 -17z"/>
</g>
</svg>
