<?xml version="1.0" standalone="no"?>
<!DOCTYPE svg PUBLIC "-//W3C//DTD SVG 20010904//EN"
 "http://www.w3.org/TR/2001/REC-SVG-20010904/DTD/svg10.dtd">
<svg version="1.0" xmlns="http://www.w3.org/2000/svg"
 width="512.000000pt" height="512.000000pt" viewBox="0 0 512.000000 512.000000"
 preserveAspectRatio="xMidYMid meet">

<g transform="translate(0.000000,512.000000) scale(0.100000,-0.100000)"
fill="#000000" stroke="none">
<path d="M2875 5114 c-16 -2 -70 -9 -120 -15 -188 -22 -457 -105 -639 -196
-199 -100 -349 -207 -515 -368 -334 -324 -528 -694 -613 -1165 -9 -50 -13
-156 -12 -320 1 -225 3 -255 27 -372 46 -219 115 -411 218 -602 27 -51 49
-106 49 -121 0 -25 -82 -112 -569 -599 -358 -360 -581 -591 -603 -626 -105
-168 -126 -338 -60 -473 40 -81 148 -187 228 -224 132 -60 301 -36 464 65 35
22 266 245 626 603 487 487 574 569 599 569 15 0 70 -22 121 -49 191 -103 383
-172 602 -218 117 -24 147 -26 372 -27 164 -1 270 3 320 12 471 85 841 279
1165 613 306 315 488 680 562 1128 24 147 24 474 0 625 -146 909 -831 1598
-1733 1741 -94 15 -424 28 -489 19z m330 -549 c523 -44 1023 -407 1239 -901
224 -513 156 -1099 -180 -1544 -485 -644 -1399 -799 -2071 -350 -637 425 -863
1269 -523 1950 229 459 662 770 1165 839 138 19 198 20 370 6z"/>
<path d="M2950 4275 c-459 -67 -850 -358 -1039 -773 -57 -125 -36 -231 58
-297 39 -27 50 -30 121 -30 111 0 145 25 217 159 141 264 337 425 597 491 188
48 361 40 550 -25 101 -34 149 -37 204 -14 144 60 179 249 65 357 -16 15 -64
41 -107 57 -210 81 -446 108 -666 75z"/>
</g>
</svg>
