<?xml version="1.0" standalone="no"?>
<!DOCTYPE svg PUBLIC "-//W3C//DTD SVG 20010904//EN"
 "http://www.w3.org/TR/2001/REC-SVG-20010904/DTD/svg10.dtd">
<svg version="1.0" xmlns="http://www.w3.org/2000/svg"
 width="512.000000pt" height="512.000000pt" viewBox="0 0 512.000000 512.000000"
 preserveAspectRatio="xMidYMid meet">

<g transform="translate(0.000000,512.000000) scale(0.100000,-0.100000)"
fill="#000000" stroke="none">
<path d="M331 4344 c-106 -28 -207 -107 -270 -209 -64 -107 -61 -27 -61 -1575
0 -1555 -4 -1467 65 -1579 40 -67 92 -118 160 -160 109 -65 -51 -61 2333 -61
1941 0 2170 2 2226 16 111 28 209 103 271 204 69 113 65 26 65 1580 0 1246 -2
1409 -16 1464 -28 111 -102 209 -205 271 -114 70 58 65 -2344 64 -1864 0
-2178 -2 -2224 -15z m3399 -1154 c-481 -479 -895 -883 -919 -900 -80 -54 -145
-73 -251 -73 -106 0 -171 19 -251 73 -24 17 -438 421 -919 900 l-875 869 2045
0 2045 0 -875 -869z m-2156 -609 l20 -22 -190 -190 c-104 -105 -395 -393 -646
-641 l-458 -450 0 1282 0 1282 628 -620 c345 -341 636 -629 646 -641z m3244
-661 l-3 -640 -645 640 -645 640 645 639 645 639 3 -639 c1 -352 1 -927 0
-1279z m-2869 287 c149 -146 197 -183 304 -232 191 -87 423 -87 614 0 107 49
155 86 305 233 l137 135 538 -531 c296 -292 587 -580 648 -641 l110 -111
-2045 1 -2045 0 645 639 c355 352 647 640 649 640 3 0 66 -60 140 -133z"/>
</g>
</svg>
