<?xml version="1.0" encoding="UTF-8"?>
<!DOCTYPE svg PUBLIC "-//W3C//DTD SVG 1.1//EN" "http://www.w3.org/Graphics/SVG/1.1/DTD/svg11.dtd">
<svg xmlns="http://www.w3.org/2000/svg" version="1.1" width="512px" height="512px" style="shape-rendering:geometricPrecision; text-rendering:geometricPrecision; image-rendering:optimizeQuality; fill-rule:evenodd; clip-rule:evenodd" xmlns:xlink="http://www.w3.org/1999/xlink">
<g><path style="opacity:1" fill="#950008" d="M 485.5,93.5 C 485.738,95.4044 486.738,96.7377 488.5,97.5C 488.738,99.4044 489.738,100.738 491.5,101.5C 492.338,101.842 492.672,102.508 492.5,103.5C 492.427,105.027 493.094,106.027 494.5,106.5C 500.933,118.3 505.1,130.966 507,144.5C 508.888,162.287 510.388,179.954 511.5,197.5C 511.5,236.5 511.5,275.5 511.5,314.5C 510.525,333.438 508.691,352.438 506,371.5C 498.563,414.941 473.063,439.108 429.5,444C 315.5,451.281 201.5,451.281 87.5,444C 73.8023,443.158 60.8023,439.992 48.5,434.5C 48.0269,433.094 47.0269,432.427 45.5,432.5C 43.847,432.34 42.5137,431.674 41.5,430.5C 40.7377,428.738 39.4044,427.738 37.5,427.5C 37.0269,426.094 36.0269,425.427 34.5,425.5C 33.0892,423.086 31.0892,421.419 28.5,420.5C 18.3504,410.551 11.5171,398.551 8,384.5C 5.94865,376.576 4.28198,368.576 3,360.5C 1.79573,345.013 0.629059,329.679 -0.5,314.5C -0.5,275.5 -0.5,236.5 -0.5,197.5C 0.612494,179.954 2.11249,162.287 4,144.5C 6.24332,130.599 10.7433,117.599 17.5,105.5C 18.9063,105.027 19.573,104.027 19.5,102.5C 20.9063,102.027 21.573,101.027 21.5,99.5C 22.9063,99.0269 23.573,98.0269 23.5,96.5C 26.4729,92.8604 29.8062,89.5271 33.5,86.5C 35.4044,86.2624 36.7377,85.2624 37.5,83.5C 39.4044,83.2624 40.7377,82.2624 41.5,80.5C 43.0269,80.573 44.0269,79.9063 44.5,78.5C 50.1995,74.4879 56.5329,71.8213 63.5,70.5C 66.4951,70.7062 69.1617,70.0395 71.5,68.5C 91.7375,66.1447 112.071,64.6447 132.5,64C 226.866,60.1992 321.2,60.8659 415.5,66C 435.158,65.7282 453.491,70.3949 470.5,80C 476.292,83.6253 481.292,88.1253 485.5,93.5 Z M 449.5,103.5 C 449.973,104.906 450.973,105.573 452.5,105.5C 452.842,106.338 453.508,106.672 454.5,106.5C 455.262,108.262 456.596,109.262 458.5,109.5C 460.862,112.192 463.196,114.859 465.5,117.5C 465.932,118.71 466.599,119.71 467.5,120.5C 472.059,131.066 475.226,142.066 477,153.5C 482.983,221.501 482.983,289.501 477,357.5C 476.1,361.834 475.266,366.168 474.5,370.5C 473.388,372.599 472.721,374.933 472.5,377.5C 470.598,381.655 468.931,385.989 467.5,390.5C 466.094,390.973 465.427,391.973 465.5,393.5C 464.094,393.973 463.427,394.973 463.5,396.5C 461.5,397.833 459.833,399.5 458.5,401.5C 456.596,401.738 455.262,402.738 454.5,404.5C 452.973,404.427 451.973,405.094 451.5,406.5C 448.162,407.836 444.829,409.169 441.5,410.5C 438.933,410.721 436.599,411.388 434.5,412.5C 319.847,420.318 205.181,420.485 90.5,413C 73.8945,413.016 59.5611,407.516 47.5,396.5C 47.2624,394.596 46.2624,393.262 44.5,392.5C 42.676,387.675 40.676,383.008 38.5,378.5C 38.2785,375.933 37.6118,373.599 36.5,371.5C 34.0116,358.633 32.5116,345.633 32,332.5C 28.199,271.076 29.199,209.742 35,148.5C 40.1763,113.653 60.343,96.4866 95.5,97C 201.834,91.0054 308.167,91.0054 414.5,97C 426.593,97.0831 438.26,99.2498 449.5,103.5 Z M 222.5,205.5 C 222.973,206.906 223.973,207.573 225.5,207.5C 227.849,209.341 230.515,210.674 233.5,211.5C 233.973,212.906 234.973,213.573 236.5,213.5C 238.849,215.341 241.515,216.674 244.5,217.5C 244.973,218.906 245.973,219.573 247.5,219.5C 249.849,221.341 252.515,222.674 255.5,223.5C 255.973,224.906 256.973,225.573 258.5,225.5C 260.181,227.008 262.181,228.008 264.5,228.5C 264.973,229.906 265.973,230.573 267.5,230.5C 269.849,232.341 272.515,233.674 275.5,234.5C 275.973,235.906 276.973,236.573 278.5,236.5C 280.849,238.341 283.515,239.674 286.5,240.5C 286.973,241.906 287.973,242.573 289.5,242.5C 291.849,244.341 294.515,245.674 297.5,246.5C 297.973,247.906 298.973,248.573 300.5,248.5C 301.429,249.315 302.429,250.148 303.5,251C 299.944,252.608 296.611,254.441 293.5,256.5C 291.973,256.427 290.973,257.094 290.5,258.5C 286.849,259.659 283.515,261.326 280.5,263.5C 278.973,263.427 277.973,264.094 277.5,265.5C 273.182,266.992 269.182,268.992 265.5,271.5C 263.973,271.427 262.973,272.094 262.5,273.5C 258.849,274.659 255.515,276.326 252.5,278.5C 250.973,278.427 249.973,279.094 249.5,280.5C 245.849,281.659 242.515,283.326 239.5,285.5C 237.973,285.427 236.973,286.094 236.5,287.5C 232.849,288.659 229.515,290.326 226.5,292.5C 224.973,292.427 223.973,293.094 223.5,294.5C 222.504,294.414 221.671,294.748 221,295.5C 220.833,280.5 220.667,265.5 220.5,250.5C 220.501,235.151 221.167,220.151 222.5,205.5 Z"/></g>
<g><path style="opacity:1" fill="#710006" d="M 71.5,68.5 C 69.1617,70.0395 66.4951,70.7062 63.5,70.5C 65.9052,69.2318 68.5718,68.5651 71.5,68.5 Z"/></g>
<g><path style="opacity:0.965" fill="#690006" d="M 44.5,78.5 C 44.0269,79.9063 43.0269,80.573 41.5,80.5C 41.9731,79.0937 42.9731,78.427 44.5,78.5 Z"/></g>
<g><path style="opacity:0.961" fill="#6f0006" d="M 41.5,80.5 C 40.7377,82.2624 39.4044,83.2624 37.5,83.5C 38.2623,81.7376 39.5956,80.7376 41.5,80.5 Z"/></g>
<g><path style="opacity:0.957" fill="#6f0006" d="M 37.5,83.5 C 36.7377,85.2624 35.4044,86.2624 33.5,86.5C 34.2623,84.7376 35.5956,83.7376 37.5,83.5 Z"/></g>
<g><path style="opacity:0.98" fill="#690006" d="M 485.5,93.5 C 487.262,94.2623 488.262,95.5956 488.5,97.5C 486.738,96.7377 485.738,95.4044 485.5,93.5 Z"/></g>
<g><path style="opacity:0.725" fill="#600005" d="M 23.5,96.5 C 23.573,98.0269 22.9063,99.0269 21.5,99.5C 21.427,97.9731 22.0937,96.9731 23.5,96.5 Z"/></g>
<g><path style="opacity:0.996" fill="#700007" d="M 488.5,97.5 C 490.262,98.2623 491.262,99.5956 491.5,101.5C 489.738,100.738 488.738,99.4044 488.5,97.5 Z"/></g>
<g><path style="opacity:0.914" fill="#6e0006" d="M 21.5,99.5 C 21.573,101.027 20.9063,102.027 19.5,102.5C 19.427,100.973 20.0937,99.9731 21.5,99.5 Z"/></g>
<g><path style="opacity:0.588" fill="#600005" d="M 19.5,102.5 C 19.573,104.027 18.9063,105.027 17.5,105.5C 17.427,103.973 18.0937,102.973 19.5,102.5 Z"/></g>
<g><path style="opacity:0.58" fill="#5f0005" d="M 449.5,103.5 C 451.027,103.427 452.027,104.094 452.5,105.5C 450.973,105.573 449.973,104.906 449.5,103.5 Z"/></g>
<g><path style="opacity:0.686" fill="#640005" d="M 492.5,103.5 C 493.906,103.973 494.573,104.973 494.5,106.5C 493.094,106.027 492.427,105.027 492.5,103.5 Z"/></g>
<g><path style="opacity:0.945" fill="#6d0006" d="M 454.5,106.5 C 456.404,106.738 457.738,107.738 458.5,109.5C 456.596,109.262 455.262,108.262 454.5,106.5 Z"/></g>
<g><path style="opacity:1" fill="#6e0006" d="M 465.5,117.5 C 467.048,117.821 467.715,118.821 467.5,120.5C 466.599,119.71 465.932,118.71 465.5,117.5 Z"/></g>
<g><path style="opacity:1" fill="#950008" d="M 339.5,236.5 C 339.738,238.404 340.738,239.738 342.5,240.5C 347.913,251.785 345.579,261.285 335.5,269C 297.674,289.079 260.007,309.412 222.5,330C 215.973,332.877 209.307,333.21 202.5,331C 201.058,330.623 200.058,329.79 199.5,328.5C 199.027,327.094 198.027,326.427 196.5,326.5C 192.479,322.787 190.313,318.12 190,312.5C 189.333,271.167 189.333,229.833 190,188.5C 190.014,183.264 191.847,178.931 195.5,175.5C 196.833,174.833 197.833,173.833 198.5,172.5C 205.517,167 213.184,166.166 221.5,170C 258.167,190 294.833,210 331.5,230C 334.787,231.467 337.454,233.634 339.5,236.5 Z M 222.5,205.5 C 222.973,206.906 223.973,207.573 225.5,207.5C 227.849,209.341 230.515,210.674 233.5,211.5C 233.973,212.906 234.973,213.573 236.5,213.5C 238.849,215.341 241.515,216.674 244.5,217.5C 244.973,218.906 245.973,219.573 247.5,219.5C 249.849,221.341 252.515,222.674 255.5,223.5C 255.973,224.906 256.973,225.573 258.5,225.5C 260.181,227.008 262.181,228.008 264.5,228.5C 264.973,229.906 265.973,230.573 267.5,230.5C 269.849,232.341 272.515,233.674 275.5,234.5C 275.973,235.906 276.973,236.573 278.5,236.5C 280.849,238.341 283.515,239.674 286.5,240.5C 286.973,241.906 287.973,242.573 289.5,242.5C 291.849,244.341 294.515,245.674 297.5,246.5C 297.973,247.906 298.973,248.573 300.5,248.5C 301.429,249.315 302.429,250.148 303.5,251C 299.944,252.608 296.611,254.441 293.5,256.5C 291.973,256.427 290.973,257.094 290.5,258.5C 286.849,259.659 283.515,261.326 280.5,263.5C 278.973,263.427 277.973,264.094 277.5,265.5C 273.182,266.992 269.182,268.992 265.5,271.5C 263.973,271.427 262.973,272.094 262.5,273.5C 258.849,274.659 255.515,276.326 252.5,278.5C 250.973,278.427 249.973,279.094 249.5,280.5C 245.849,281.659 242.515,283.326 239.5,285.5C 237.973,285.427 236.973,286.094 236.5,287.5C 232.849,288.659 229.515,290.326 226.5,292.5C 224.973,292.427 223.973,293.094 223.5,294.5C 222.504,294.414 221.671,294.748 221,295.5C 220.833,280.5 220.667,265.5 220.5,250.5C 220.501,235.151 221.167,220.151 222.5,205.5 Z"/></g>
<g><path style="opacity:0.894" fill="#660005" d="M 198.5,172.5 C 197.833,173.833 196.833,174.833 195.5,175.5C 195.5,173.5 196.5,172.5 198.5,172.5 Z"/></g>
<g><path style="opacity:0.608" fill="#610005" d="M 222.5,205.5 C 224.027,205.427 225.027,206.094 225.5,207.5C 223.973,207.573 222.973,206.906 222.5,205.5 Z"/></g>
<g><path style="opacity:0.631" fill="#620005" d="M 233.5,211.5 C 235.027,211.427 236.027,212.094 236.5,213.5C 234.973,213.573 233.973,212.906 233.5,211.5 Z"/></g>
<g><path style="opacity:0.655" fill="#630005" d="M 244.5,217.5 C 246.027,217.427 247.027,218.094 247.5,219.5C 245.973,219.573 244.973,218.906 244.5,217.5 Z"/></g>
<g><path style="opacity:0.678" fill="#630005" d="M 255.5,223.5 C 257.027,223.427 258.027,224.094 258.5,225.5C 256.973,225.573 255.973,224.906 255.5,223.5 Z"/></g>
<g><path style="opacity:0.588" fill="#600005" d="M 264.5,228.5 C 266.027,228.427 267.027,229.094 267.5,230.5C 265.973,230.573 264.973,229.906 264.5,228.5 Z"/></g>
<g><path style="opacity:0.616" fill="#610005" d="M 275.5,234.5 C 277.027,234.427 278.027,235.094 278.5,236.5C 276.973,236.573 275.973,235.906 275.5,234.5 Z"/></g>
<g><path style="opacity:0.992" fill="#6e0006" d="M 339.5,236.5 C 341.262,237.262 342.262,238.596 342.5,240.5C 340.738,239.738 339.738,238.404 339.5,236.5 Z"/></g>
<g><path style="opacity:0.639" fill="#620005" d="M 286.5,240.5 C 288.027,240.427 289.027,241.094 289.5,242.5C 287.973,242.573 286.973,241.906 286.5,240.5 Z"/></g>
<g><path style="opacity:0.663" fill="#630005" d="M 297.5,246.5 C 299.027,246.427 300.027,247.094 300.5,248.5C 298.973,248.573 297.973,247.906 297.5,246.5 Z"/></g>
<g><path style="opacity:0.973" fill="#6c0006" d="M 293.5,256.5 C 293.027,257.906 292.027,258.573 290.5,258.5C 290.973,257.094 291.973,256.427 293.5,256.5 Z"/></g>
<g><path style="opacity:0.976" fill="#6c0006" d="M 280.5,263.5 C 280.027,264.906 279.027,265.573 277.5,265.5C 277.973,264.094 278.973,263.427 280.5,263.5 Z"/></g>
<g><path style="opacity:0.957" fill="#680006" d="M 265.5,271.5 C 265.027,272.906 264.027,273.573 262.5,273.5C 262.973,272.094 263.973,271.427 265.5,271.5 Z"/></g>
<g><path style="opacity:0.961" fill="#690006" d="M 252.5,278.5 C 252.027,279.906 251.027,280.573 249.5,280.5C 249.973,279.094 250.973,278.427 252.5,278.5 Z"/></g>
<g><path style="opacity:0.965" fill="#690006" d="M 239.5,285.5 C 239.027,286.906 238.027,287.573 236.5,287.5C 236.973,286.094 237.973,285.427 239.5,285.5 Z"/></g>
<g><path style="opacity:0.969" fill="#6a0006" d="M 226.5,292.5 C 226.027,293.906 225.027,294.573 223.5,294.5C 223.973,293.094 224.973,292.427 226.5,292.5 Z"/></g>
<g><path style="opacity:0.875" fill="#680006" d="M 196.5,326.5 C 198.027,326.427 199.027,327.094 199.5,328.5C 197.973,328.573 196.973,327.906 196.5,326.5 Z"/></g>
<g><path style="opacity:0.996" fill="#6c0006" d="M 474.5,370.5 C 474.829,373.228 474.163,375.562 472.5,377.5C 472.721,374.933 473.388,372.599 474.5,370.5 Z"/></g>
<g><path style="opacity:0.996" fill="#6d0006" d="M 36.5,371.5 C 37.6118,373.599 38.2785,375.933 38.5,378.5C 36.8372,376.562 36.1706,374.228 36.5,371.5 Z"/></g>
<g><path style="opacity:0.631" fill="#610005" d="M 467.5,390.5 C 467.573,392.027 466.906,393.027 465.5,393.5C 465.427,391.973 466.094,390.973 467.5,390.5 Z"/></g>
<g><path style="opacity:0.984" fill="#6a0006" d="M 44.5,392.5 C 46.2624,393.262 47.2624,394.596 47.5,396.5C 45.7376,395.738 44.7376,394.404 44.5,392.5 Z"/></g>
<g><path style="opacity:0.839" fill="#670006" d="M 465.5,393.5 C 465.573,395.027 464.906,396.027 463.5,396.5C 463.427,394.973 464.094,393.973 465.5,393.5 Z"/></g>
<g><path style="opacity:0.925" fill="#6b0006" d="M 458.5,401.5 C 457.738,403.262 456.404,404.262 454.5,404.5C 455.262,402.738 456.596,401.738 458.5,401.5 Z"/></g>
<g><path style="opacity:0.961" fill="#6a0006" d="M 454.5,404.5 C 454.027,405.906 453.027,406.573 451.5,406.5C 451.973,405.094 452.973,404.427 454.5,404.5 Z"/></g>
<g><path style="opacity:1" fill="#6f0006" d="M 441.5,410.5 C 439.562,412.163 437.228,412.829 434.5,412.5C 436.599,411.388 438.933,410.721 441.5,410.5 Z"/></g>
<g><path style="opacity:0.965" fill="#660005" d="M 28.5,420.5 C 31.0892,421.419 33.0892,423.086 34.5,425.5C 31.9108,424.581 29.9108,422.914 28.5,420.5 Z"/></g>
<g><path style="opacity:0.894" fill="#6c0006" d="M 34.5,425.5 C 36.0269,425.427 37.0269,426.094 37.5,427.5C 35.9731,427.573 34.9731,426.906 34.5,425.5 Z"/></g>
<g><path style="opacity:1" fill="#710006" d="M 37.5,427.5 C 39.4044,427.738 40.7377,428.738 41.5,430.5C 39.5956,430.262 38.2623,429.262 37.5,427.5 Z"/></g>
<g><path style="opacity:0.58" fill="#600005" d="M 45.5,432.5 C 47.0269,432.427 48.0269,433.094 48.5,434.5C 46.9731,434.573 45.9731,433.906 45.5,432.5 Z"/></g>
</svg>
