<?xml version="1.0" standalone="no"?>
<!DOCTYPE svg PUBLIC "-//W3C//DTD SVG 20010904//EN"
 "http://www.w3.org/TR/2001/REC-SVG-20010904/DTD/svg10.dtd">
<svg version="1.0" xmlns="http://www.w3.org/2000/svg"
 width="338.000000pt" height="916.000000pt" viewBox="0 0 338.000000 916.000000"
 preserveAspectRatio="xMidYMid meet">

<g transform="translate(0.000000,916.000000) scale(0.100000,-0.100000)"
fill="#000000" stroke="none">
<path d="M1172 9153 c38 -6 52 -26 38 -53 -16 -31 -5 -50 27 -49 l28 2 -28 4
c-17 3 -27 9 -24 16 22 60 8 88 -41 86 l-27 -2 27 -4z"/>
<path d="M820 9030 c-50 -67 -89 -126 -86 -133 3 -9 5 -8 5 1 1 8 22 41 48 74
40 53 48 58 54 42 6 -15 8 -13 8 12 1 17 14 48 32 72 l30 41 82 4 82 3 -82 2
-82 2 -91 -120z"/>
<path d="M2311 9105 c-18 -25 -38 -45 -45 -45 -7 0 -38 -32 -69 -71 -50 -63
-57 -78 -57 -115 l0 -44 79 0 c54 0 81 -4 84 -12 3 -7 5 3 5 22 0 19 -2 27 -5
18 -4 -15 -16 -18 -79 -18 l-74 0 0 38 c0 29 11 50 53 104 28 37 59 68 67 68
16 1 97 100 82 100 -5 0 -23 -20 -41 -45z"/>
<path d="M2543 9143 l107 -4 0 -34 c0 -29 4 -36 25 -41 16 -4 25 -13 25 -25 0
-14 7 -19 30 -19 27 0 30 -3 30 -30 0 -36 -22 -91 -50 -127 -17 -22 -20 -39
-18 -112 l2 -86 5 85 c5 70 11 94 35 134 21 35 30 63 30 95 1 43 -1 46 -26 49
-16 2 -28 9 -28 18 0 8 -11 19 -25 24 -20 8 -25 16 -25 45 l0 35 -112 -2 -113
-2 108 -3z"/>
<path d="M1328 9042 c9 -10 19 -17 21 -16 6 5 -20 34 -30 34 -5 0 -1 -8 9 -18z"/>
<path d="M1341 8974 c0 -11 -13 -44 -27 -73 -15 -28 -24 -55 -20 -58 3 -4 6
-1 6 5 0 7 19 13 48 14 l47 1 -42 4 -41 4 19 45 c11 25 18 53 16 62 -4 13 -5
13 -6 -4z"/>
<path d="M841 8955 c-1 -24 34 -85 49 -85 6 0 10 -92 10 -264 l0 -264 -48 -41
c-46 -38 -53 -40 -123 -44 l-74 -3 76 -2 c74 -2 76 -1 119 36 43 36 46 37 144
43 l101 5 -92 2 -93 2 0 263 0 264 -25 23 c-14 13 -29 38 -34 54 -6 21 -9 24
-10 11z"/>
<path d="M1533 8853 c37 -2 97 -2 135 0 37 2 6 3 -68 3 -74 0 -105 -1 -67 -3z"/>
<path d="M1883 8843 c37 -2 97 -2 135 0 37 2 6 3 -68 3 -74 0 -105 -1 -67 -3z"/>
<path d="M731 8824 c-1 -11 12 -41 29 -67 29 -47 29 -47 7 -48 -17 -1 -15 -3
8 -8 17 -4 32 -6 33 -5 2 2 -11 24 -28 49 -18 26 -36 59 -40 73 -7 22 -8 23
-9 6z"/>
<path d="M1283 8775 c0 -27 2 -38 4 -22 2 15 2 37 0 50 -2 12 -4 0 -4 -28z"/>
<path d="M2294 8670 c0 -52 1 -74 3 -47 2 26 2 68 0 95 -2 26 -3 4 -3 -48z"/>
<path d="M586 8665 c-8 -19 -21 -35 -29 -35 -36 0 -128 -130 -126 -177 0 -10
7 3 15 28 16 52 87 139 114 139 10 0 23 13 30 31 7 17 23 35 34 39 21 9 21 9
-1 9 -17 1 -27 -8 -37 -34z"/>
<path d="M812 8650 c0 -19 2 -27 5 -17 2 9 2 25 0 35 -3 9 -5 1 -5 -18z"/>
<path d="M1272 8640 c0 -19 2 -27 5 -17 2 9 2 25 0 35 -3 9 -5 1 -5 -18z"/>
<path d="M2683 8555 c0 -44 2 -61 4 -37 2 23 2 59 0 80 -2 20 -4 1 -4 -43z"/>
<path d="M822 8570 c0 -19 2 -27 5 -17 2 9 2 25 0 35 -3 9 -5 1 -5 -18z"/>
<path d="M1283 8510 c0 -30 2 -43 4 -27 2 15 2 39 0 55 -2 15 -4 2 -4 -28z"/>
<path d="M832 8505 c0 -16 2 -22 5 -12 2 9 2 23 0 30 -3 6 -5 -1 -5 -18z"/>
<path d="M2281 8513 c-1 -23 -2 -23 -218 -26 -209 -2 -206 -3 70 -5 158 -1
287 -4 287 -5 0 -17 -44 -124 -68 -167 -17 -30 -34 -74 -38 -97 l-6 -42 -97
-4 -96 -3 98 -2 c79 -2 99 1 103 13 5 11 26 15 88 17 l81 2 -78 5 c-42 3 -77
9 -77 14 0 4 0 14 0 22 0 11 13 15 48 17 l47 1 -42 4 -43 4 31 61 c35 69 61
147 53 160 -3 4 -34 8 -69 8 -58 0 -64 2 -68 23 l-4 22 -2 -22z"/>
<path d="M1350 8455 c-38 -39 -46 -43 -52 -28 -5 13 -7 10 -7 -13 -1 -35 -42
-80 -81 -87 l-25 -4 27 -2 c21 -1 42 16 103 82 l76 82 137 5 137 6 -135 2
-136 2 -44 -45z"/>
<path d="M2673 8350 c0 -47 2 -66 4 -42 2 23 2 61 0 85 -2 23 -4 4 -4 -43z"/>
<path d="M1338 8355 c-27 -35 -48 -73 -48 -84 0 -20 -7 -21 -167 -24 l-168 -3
167 -2 167 -2 3 -27 3 -28 128 0 127 -1 -125 3 -125 4 0 47 c0 41 7 57 45 110
l45 62 202 3 203 2 -205 2 -205 2 -47 -64z"/>
<path d="M430 8401 c0 -6 4 -13 10 -16 6 -3 7 1 4 9 -7 18 -14 21 -14 7z"/>
<path d="M2038 8403 c61 -2 163 -2 225 0 61 1 11 3 -113 3 -124 0 -174 -2
-112 -3z"/>
<path d="M466 8393 c5 -4 17 -30 26 -58 9 -27 17 -43 17 -35 1 27 -27 94 -40
98 -9 2 -10 1 -3 -5z"/>
<path d="M161 8116 c-61 -90 -111 -174 -111 -185 0 -38 35 -61 87 -59 l48 2
-47 3 c-27 2 -48 8 -48 13 0 5 45 76 99 159 l100 150 48 4 48 3 -50 2 -50 1
-103 -155 c-56 -85 -107 -152 -112 -149 -23 14 -4 56 98 205 l107 159 55 3 55
4 -56 2 -56 2 -112 -164z"/>
<path d="M475 8269 c-26 -4 -9 -6 50 -6 88 -1 96 3 25 9 -19 2 -53 0 -75 -3z"/>
<path d="M2595 8249 l-70 -5 93 -2 c91 -2 92 -2 92 -27 0 -25 -1 -25 -97 -27
l-98 -1 80 -6 c114 -9 125 -6 125 34 0 39 -16 43 -125 34z"/>
<path d="M874 8228 c-51 -59 -54 -69 -9 -28 27 25 52 46 54 48 2 1 -2 2 -11 2
-8 0 -23 -10 -34 -22z"/>
<path d="M428 8193 c12 -2 32 -2 45 0 12 2 2 4 -23 4 -25 0 -35 -2 -22 -4z"/>
<path d="M533 8183 c15 -2 37 -2 50 0 12 2 0 4 -28 4 -27 0 -38 -2 -22 -4z"/>
<path d="M643 8173 c15 -2 37 -2 50 0 12 2 0 4 -28 4 -27 0 -38 -2 -22 -4z"/>
<path d="M1742 8173 c48 -2 129 -2 180 0 51 1 12 3 -87 3 -99 0 -141 -2 -93
-3z"/>
<path d="M3023 8173 c64 -4 67 -5 67 -28 l0 -25 -204 0 c-154 0 -206 3 -209
13 -3 6 -5 -22 -4 -63 1 -67 1 -69 4 -17 l4 57 204 0 c113 0 205 -4 205 -8 0
-4 -52 -70 -115 -146 -63 -76 -115 -141 -115 -144 0 -9 25 19 138 155 97 115
102 124 102 167 l0 46 -72 -2 -73 -2 68 -3z"/>
<path d="M748 8163 c12 -2 32 -2 45 0 12 2 2 4 -23 4 -25 0 -35 -2 -22 -4z"/>
<path d="M1763 8143 c31 -2 83 -2 115 0 31 2 5 3 -58 3 -63 0 -89 -1 -57 -3z"/>
<path d="M1663 8133 c9 -2 23 -2 30 0 6 3 -1 5 -18 5 -16 0 -22 -2 -12 -5z"/>
<path d="M1953 8133 c9 -2 23 -2 30 0 6 3 -1 5 -18 5 -16 0 -22 -2 -12 -5z"/>
<path d="M1585 8120 c-25 -11 1 -11 35 0 20 6 21 8 5 8 -11 0 -29 -3 -40 -8z"/>
<path d="M2008 8123 c6 -2 18 -2 25 0 6 3 1 5 -13 5 -14 0 -19 -2 -12 -5z"/>
<path d="M2110 8096 c239 -84 435 -270 515 -489 10 -26 20 -46 22 -43 9 9 -55
143 -97 206 -84 125 -193 221 -320 285 -58 30 -156 65 -174 64 -6 0 18 -11 54
-23z"/>
<path d="M1453 8071 c-135 -64 -257 -165 -352 -292 -63 -83 -125 -187 -135
-229 -4 -14 15 16 41 65 108 203 276 368 467 456 34 15 57 28 51 29 -5 0 -38
-13 -72 -29z"/>
<path d="M911 7830 c-2 -146 -4 -314 -5 -374 l-1 -110 -45 -13 c-43 -12 -43
-12 -5 -5 22 4 89 7 150 7 107 0 110 -1 122 -25 9 -17 13 -20 13 -8 0 9 -11
25 -24 35 -13 11 -26 30 -29 44 -4 23 -4 23 -6 -3 -1 -28 -1 -28 -77 -28 l-77
0 6 53 c3 28 3 45 -1 37 -4 -8 -9 136 -12 320 l-5 335 -4 -265z"/>
<path d="M1728 8053 c12 -2 32 -2 45 0 12 2 2 4 -23 4 -25 0 -35 -2 -22 -4z"/>
<path d="M1888 8053 c12 -2 30 -2 40 0 9 3 -1 5 -23 4 -22 0 -30 -2 -17 -4z"/>
<path d="M1668 8043 c6 -2 18 -2 25 0 6 3 1 5 -13 5 -14 0 -19 -2 -12 -5z"/>
<path d="M1958 8043 c6 -2 18 -2 25 0 6 3 1 5 -13 5 -14 0 -19 -2 -12 -5z"/>
<path d="M1565 8017 c-183 -68 -333 -210 -415 -391 -30 -65 -61 -171 -59 -202
0 -11 9 17 20 61 24 98 87 229 140 289 61 69 231 160 356 190 32 8 48 15 35
15 -36 1 -170 -46 -240 -86 -35 -19 -66 -33 -68 -30 -6 6 107 87 156 112 19
10 64 28 100 41 36 12 58 23 50 23 -8 0 -42 -10 -75 -22z"/>
<path d="M2010 8033 c158 -57 256 -116 350 -212 82 -83 136 -164 177 -266 18
-44 33 -73 33 -65 -1 25 -44 122 -85 190 -52 86 -162 200 -247 257 -68 45
-198 103 -228 102 -13 -1 -13 -1 0 -6z"/>
<path d="M1718 7983 c29 -2 74 -2 100 0 26 2 2 3 -53 3 -55 0 -76 -1 -47 -3z"/>
<path d="M1883 7973 c9 -2 23 -2 30 0 6 3 -1 5 -18 5 -16 0 -22 -2 -12 -5z"/>
<path d="M1938 7963 c7 -3 16 -2 19 1 4 3 -2 6 -13 5 -11 0 -14 -3 -6 -6z"/>
<path d="M2683 7900 c0 -41 2 -58 4 -37 2 20 2 54 0 75 -2 20 -4 3 -4 -38z"/>
<path d="M2030 7933 c104 -42 178 -91 255 -167 82 -81 116 -130 151 -213 13
-32 24 -51 24 -42 0 9 -16 48 -36 87 -46 92 -162 217 -257 276 -70 43 -165 86
-190 86 -7 0 17 -12 53 -27z"/>
<path d="M643 7923 c9 -2 23 -2 30 0 6 3 -1 5 -18 5 -16 0 -22 -2 -12 -5z"/>
<path d="M588 7913 c6 -2 18 -2 25 0 6 3 1 5 -13 5 -14 0 -19 -2 -12 -5z"/>
<path d="M726 7901 c62 -28 109 -108 154 -259 13 -44 18 -53 14 -27 -9 59 -60
187 -94 234 -29 39 -75 71 -102 71 -7 0 5 -9 28 -19z"/>
<path d="M502 7885 c-32 -15 -75 -26 -105 -27 l-52 -2 47 -3 48 -4 -21 -42
c-26 -50 -69 -174 -69 -196 1 -9 13 22 29 69 47 143 63 168 134 200 34 16 58
29 52 29 -5 1 -34 -10 -63 -24z"/>
<path d="M238 7863 c18 -2 45 -2 60 0 15 2 0 4 -33 4 -33 0 -45 -2 -27 -4z"/>
<path d="M2680 7810 c0 -5 20 -10 44 -10 39 0 48 -5 76 -37 17 -21 47 -69 66
-108 19 -38 32 -59 28 -45 -10 39 -33 80 -81 148 -43 60 -45 62 -89 62 -24 0
-44 -4 -44 -10z"/>
<path d="M477 7782 c-18 -20 -57 -125 -57 -151 1 -9 12 17 24 57 24 72 40 102
57 102 11 0 37 -50 55 -104 13 -39 13 -39 8 -6 -7 39 -43 112 -60 117 -6 2
-18 -5 -27 -15z"/>
<path d="M1793 7783 c9 -2 25 -2 35 0 9 3 1 5 -18 5 -19 0 -27 -2 -17 -5z"/>
<path d="M1618 7757 c-157 -54 -282 -192 -302 -334 -5 -33 -4 -32 8 10 25 84
67 155 127 212 65 62 137 99 231 120 39 8 52 14 33 14 -16 0 -60 -10 -97 -22z"/>
<path d="M1883 7773 c9 -2 25 -2 35 0 9 3 1 5 -18 5 -19 0 -27 -2 -17 -5z"/>
<path d="M1992 7752 c153 -52 253 -159 309 -332 10 -30 18 -47 18 -38 1 31
-47 147 -85 204 -59 89 -170 164 -265 179 -21 4 -13 -1 23 -13z"/>
<path d="M2690 7565 c-2 -77 -3 -170 -1 -206 4 -84 -16 -129 -53 -122 -19 4
-28 -2 -42 -24 -32 -49 -59 -57 -74 -20 l-9 22 0 -22 c-2 -45 60 -40 85 8 15
30 42 37 62 17 9 -9 12 -9 12 3 0 8 6 24 14 34 13 18 16 18 90 -14 69 -31 76
-36 76 -62 0 -16 -7 -32 -17 -38 -16 -9 -16 -10 -2 -11 18 0 29 19 29 50 0 13
5 17 19 13 20 -5 51 30 51 57 -1 8 -7 0 -15 -17 -8 -18 -18 -33 -22 -33 -4 0
-50 19 -100 42 l-93 41 -3 211 c-2 197 -3 202 -7 71z"/>
<path d="M571 7624 c0 -11 3 -14 6 -6 3 7 2 16 -1 19 -3 4 -6 -2 -5 -13z"/>
<path d="M412 7590 c0 -14 2 -19 5 -12 2 6 2 18 0 25 -3 6 -5 1 -5 -13z"/>
<path d="M1763 7603 c15 -2 39 -2 55 0 15 2 2 4 -28 4 -30 0 -43 -2 -27 -4z"/>
<path d="M582 7580 c0 -14 2 -19 5 -12 2 6 2 18 0 25 -3 6 -5 1 -5 -13z"/>
<path d="M1640 7573 c-29 -15 -71 -44 -93 -66 -40 -40 -87 -127 -87 -162 1
-11 9 4 19 33 32 92 111 171 203 203 29 10 44 18 32 19 -11 0 -44 -12 -74 -27z"/>
<path d="M1858 7593 c7 -3 16 -2 19 1 4 3 -2 6 -13 5 -11 0 -14 -3 -6 -6z"/>
<path d="M342 7565 c0 -16 2 -22 5 -12 2 9 2 23 0 30 -3 6 -5 -1 -5 -18z"/>
<path d="M1940 7559 c30 -16 65 -40 78 -52 34 -31 74 -102 88 -156 9 -31 13
-38 13 -21 2 72 -103 212 -184 246 -56 23 -54 16 5 -17z"/>
<path d="M2901 7575 c0 -5 6 -35 14 -65 7 -30 13 -44 13 -30 0 24 -25 115 -27
95z"/>
<path d="M402 7540 c0 -14 2 -19 5 -12 2 6 2 18 0 25 -3 6 -5 1 -5 -13z"/>
<path d="M592 7535 c0 -11 4 -33 8 -50 7 -27 8 -27 8 -5 0 14 -4 36 -8 50 -6
20 -8 21 -8 5z"/>
<path d="M2651 7540 c0 -8 4 -24 9 -35 5 -13 9 -14 9 -5 0 8 -4 24 -9 35 -5
13 -9 14 -9 5z"/>
<path d="M333 7490 c0 -25 2 -35 4 -22 2 12 2 32 0 45 -2 12 -4 2 -4 -23z"/>
<path d="M946 7494 c-4 -14 -5 -28 -3 -31 3 -2 8 8 11 23 4 14 5 28 3 31 -3 2
-8 -8 -11 -23z"/>
<path d="M392 7485 c0 -16 2 -22 5 -12 2 9 2 23 0 30 -3 6 -5 -1 -5 -18z"/>
<path d="M2461 7474 c0 -11 3 -14 6 -6 3 7 2 16 -1 19 -3 4 -6 -2 -5 -13z"/>
<path d="M2672 7460 c0 -14 2 -19 5 -12 2 6 2 18 0 25 -3 6 -5 1 -5 -13z"/>
<path d="M2577 7425 c3 -27 7 -52 9 -54 7 -8 2 54 -6 79 -6 17 -7 9 -3 -25z"/>
<path d="M612 7420 c0 -19 2 -27 5 -17 2 9 2 25 0 35 -3 9 -5 1 -5 -18z"/>
<path d="M2472 7430 c0 -14 2 -19 5 -12 2 6 2 18 0 25 -3 6 -5 1 -5 -13z"/>
<path d="M2934 7360 c0 -52 1 -74 3 -47 2 26 2 68 0 95 -2 26 -3 4 -3 -48z"/>
<path d="M382 7410 c0 -19 2 -27 5 -17 2 9 2 25 0 35 -3 9 -5 1 -5 -18z"/>
<path d="M1815 7381 c-10 -33 -21 -61 -24 -61 -3 0 -19 20 -34 45 -30 47 -46
61 -26 23 7 -13 24 -40 38 -62 l25 -38 23 68 c13 38 22 73 20 78 -2 5 -11 -19
-22 -53z"/>
<path d="M323 7365 c0 -38 2 -53 4 -32 2 20 2 52 0 70 -2 17 -4 1 -4 -38z"/>
<path d="M2482 7375 c0 -16 2 -22 5 -12 2 9 2 23 0 30 -3 6 -5 -1 -5 -18z"/>
<path d="M1304 7235 c0 -82 2 -115 3 -72 2 43 2 110 0 150 -1 40 -3 5 -3 -78z"/>
<path d="M623 7325 c0 -31 7 -60 19 -77 10 -14 18 -41 19 -60 1 -29 2 -30 8
-9 6 23 7 23 32 -15 41 -62 71 -123 95 -199 13 -38 23 -63 24 -54 1 48 -70
203 -131 285 -48 65 -50 75 -19 85 24 8 23 8 -5 6 -28 -2 -30 0 -36 43 l-7 45
1 -50z"/>
<path d="M373 7295 c0 -38 2 -53 4 -32 2 20 2 52 0 70 -2 17 -4 1 -4 -38z"/>
<path d="M2322 7335 c0 -16 2 -22 5 -12 2 9 2 23 0 30 -3 6 -5 -1 -5 -18z"/>
<path d="M2593 7320 c0 -25 2 -35 4 -22 2 12 2 32 0 45 -2 12 -4 2 -4 -23z"/>
<path d="M2492 7310 c0 -19 2 -27 5 -17 2 9 2 25 0 35 -3 9 -5 1 -5 -18z"/>
<path d="M788 7313 c7 -3 16 -2 19 1 4 3 -2 6 -13 5 -11 0 -14 -3 -6 -6z"/>
<path d="M1454 7259 c4 -70 29 -140 72 -196 31 -41 118 -100 159 -108 21 -4
16 0 -14 12 -25 10 -70 42 -102 70 -66 61 -97 124 -109 222 l-9 66 3 -66z"/>
<path d="M748 7303 c7 -3 16 -2 19 1 4 3 -2 6 -13 5 -11 0 -14 -3 -6 -6z"/>
<path d="M708 7293 c7 -3 16 -2 19 1 4 3 -2 6 -13 5 -11 0 -14 -3 -6 -6z"/>
<path d="M2332 6813 l-2 -483 -500 0 -499 0 -4 63 -3 62 -2 -67 -2 -68 510 0
509 0 3 288 c2 158 1 377 -2 487 -4 139 -6 53 -8 -282z"/>
<path d="M2502 7245 c0 -16 2 -22 5 -12 2 9 2 23 0 30 -3 6 -5 -1 -5 -18z"/>
<path d="M314 7060 c0 -107 2 -151 3 -97 2 53 2 141 0 195 -1 53 -3 9 -3 -98z"/>
<path d="M1132 7225 c0 -16 2 -22 5 -12 2 9 2 23 0 30 -3 6 -5 -1 -5 -18z"/>
<path d="M2111 7224 c-3 -47 -36 -117 -78 -164 -64 -71 -128 -101 -233 -111
l-85 -7 85 2 c89 3 136 19 207 73 57 43 121 167 110 210 -4 15 -5 14 -6 -3z"/>
<path d="M2652 7175 c0 -16 2 -22 5 -12 2 9 2 23 0 30 -3 6 -5 -1 -5 -18z"/>
<path d="M1121 7174 c0 -11 3 -14 6 -6 3 7 2 16 -1 19 -3 4 -6 -2 -5 -13z"/>
<path d="M1111 7134 c0 -11 3 -14 6 -6 3 7 2 16 -1 19 -3 4 -6 -2 -5 -13z"/>
<path d="M2643 7095 c0 -22 2 -30 4 -17 2 12 2 30 0 40 -3 9 -5 -1 -4 -23z"/>
<path d="M2772 7110 c-23 -21 -39 -66 -28 -77 3 -4 6 4 6 16 0 12 13 36 29 52
33 33 27 40 -7 9z"/>
<path d="M1091 7066 c-6 -25 -11 -53 -10 -63 0 -10 7 9 15 41 8 33 13 61 10
63 -2 2 -9 -16 -15 -41z"/>
<path d="M373 7035 c0 -38 2 -53 4 -32 2 20 2 52 0 70 -2 17 -4 1 -4 -38z"/>
<path d="M672 6847 l-2 -208 -51 -67 c-59 -79 -85 -87 -82 -27 l1 40 -7 -35
c-5 -27 -3 -40 11 -55 13 -16 18 -42 21 -120 l3 -100 2 108 2 109 47 61 c26
34 51 65 55 68 5 3 7 102 5 220 l-2 214 -3 -208z"/>
<path d="M2650 7033 c0 -30 21 -63 44 -69 25 -6 25 -7 10 -35 l-15 -29 -157
-2 -157 -2 155 -6 155 -5 6 -70 5 -70 2 72 c1 45 10 92 22 123 11 28 20 58 19
68 -1 10 -4 7 -8 -8 -10 -37 -42 -32 -63 10 -10 19 -18 30 -18 23z"/>
<path d="M1070 6973 c0 -10 -26 -13 -94 -13 l-95 0 -24 -40 c-13 -22 -27 -37
-30 -33 -4 3 -6 -27 -5 -68 l1 -74 6 60 c8 76 45 145 78 145 l23 0 3 -432 2
-433 3 433 2 432 185 0 185 0 3 -192 2 -193 3 200 2 200 -117 -3 c-88 -2 -118
0 -124 10 -7 10 -9 10 -9 1z"/>
<path d="M383 6915 c0 -22 2 -30 4 -17 2 12 2 30 0 40 -3 9 -5 -1 -4 -23z"/>
<path d="M391 6863 c-1 -7 -13 -14 -28 -14 l-28 -1 30 -7 c31 -7 40 0 32 22
-4 10 -6 10 -6 0z"/>
<path d="M381 6797 c-1 -25 2 -27 24 -21 56 14 106 -31 126 -111 6 -25 7 -26
8 -7 3 63 -66 137 -121 129 -21 -3 -28 1 -31 17 -3 16 -5 14 -6 -7z"/>
<path d="M830 6437 l0 -173 -61 -79 c-33 -44 -65 -81 -70 -83 -5 -2 -10 80
-11 195 l-3 198 -2 -191 c-2 -105 0 -200 4 -212 7 -18 17 -8 81 75 l72 96 0
173 c0 96 -2 174 -5 174 -3 0 -5 -78 -5 -173z"/>
<path d="M2682 6033 l-2 -373 -49 0 c-49 0 -49 0 -63 43 l-15 42 -559 0 -559
0 556 -2 556 -3 13 -45 13 -45 53 0 c47 0 55 -3 74 -30 l21 -30 177 -2 c162
-3 177 -5 180 -21 3 -12 -4 -20 -17 -24 -18 -5 -21 -12 -19 -62 l2 -56 3 51
c3 42 8 53 24 57 16 4 20 12 17 34 l-3 28 -181 3 c-180 2 -182 3 -198 27 -14
21 -16 77 -19 402 l-2 378 -3 -372z"/>
<path d="M574 6100 c0 -63 1 -89 3 -57 2 31 2 83 0 115 -2 31 -3 5 -3 -58z"/>
<path d="M584 5815 c0 -60 1 -84 3 -52 2 32 2 81 0 110 -2 29 -3 3 -3 -58z"/>
<path d="M1180 5724 c-24 -24 -29 -25 -132 -23 l-108 1 -22 -28 -22 -29 25 23
c23 20 36 22 130 22 100 1 105 2 139 30 19 16 30 30 24 30 -6 0 -21 -11 -34
-26z"/>
<path d="M325 5518 c-72 -77 -132 -150 -133 -161 -4 -20 37 -121 45 -113 3 2
-5 22 -16 45 -12 22 -21 49 -21 59 0 10 58 81 129 158 l129 139 184 5 183 6
-185 1 -185 2 -130 -141z"/>
<path d="M3062 5360 c36 -50 22 -54 -200 -60 l-197 -6 191 -2 c154 -2 194 1
210 13 10 8 30 15 44 16 24 2 24 2 2 6 -13 3 -27 15 -32 27 -5 13 -16 26 -24
29 -12 5 -11 -1 6 -23z"/>
<path d="M366 5179 c-86 -84 -159 -149 -162 -146 -3 3 -8 23 -11 45 -5 34 -1
43 26 71 21 21 31 41 30 59 -2 27 -2 27 -6 2 -3 -13 -18 -39 -34 -58 -31 -35
-36 -63 -19 -108 12 -31 18 -21 -94 -158 -43 -53 -77 -98 -75 -101 3 -2 30 28
60 68 144 186 440 479 447 443 2 -9 14 -19 28 -22 18 -5 24 -13 24 -34 0 -19
8 -33 28 -44 l27 -17 -22 20 c-13 11 -23 31 -23 45 0 19 -7 29 -25 36 -14 5
-25 16 -25 24 0 13 21 16 113 19 l112 3 -121 2 -121 2 -157 -151z"/>
<path d="M1078 5313 c90 -2 234 -2 320 0 86 1 13 3 -163 3 -176 0 -247 -2
-157 -3z"/>
<path d="M3270 5311 c79 -6 85 -8 88 -29 2 -13 -2 -30 -10 -39 -11 -14 -11
-15 2 -11 18 6 24 31 16 64 -6 23 -9 24 -94 22 l-87 -2 85 -5z"/>
<path d="M1967 5303 c94 -2 252 -2 350 0 98 1 21 2 -172 2 -192 1 -273 -1
-178 -2z"/>
<path d="M1007 5263 c79 -2 207 -2 285 0 79 1 15 3 -142 3 -157 0 -221 -2
-143 -3z"/>
<path d="M2088 5253 c156 -2 408 -2 560 0 152 1 25 2 -283 2 -308 0 -433 -1
-277 -2z"/>
<path d="M3275 5219 c-11 -16 -1 -19 13 -3 7 8 8 14 3 14 -5 0 -13 -5 -16 -11z"/>
<path d="M1363 5203 c208 -2 546 -2 750 0 205 1 35 2 -378 2 -412 0 -580 -1
-372 -2z"/>
<path d="M2878 5193 c29 -2 74 -2 100 0 26 2 2 3 -53 3 -55 0 -76 -1 -47 -3z"/>
<path d="M602 5146 c-11 -26 -399 -502 -426 -525 -14 -12 -16 -11 -16 7 0 11
-6 22 -14 25 -12 5 -12 2 -1 -20 10 -20 22 -26 52 -28 21 -1 30 0 20 2 -11 3
-16 11 -13 19 3 8 94 123 203 255 l197 241 39 -5 c91 -12 156 -89 167 -196 l7
-66 1 55 c1 34 -5 70 -17 95 -17 39 -79 103 -104 107 -7 1 60 5 148 8 l160 6
-198 2 c-193 2 -198 3 -192 22 9 28 1 25 -13 -4z"/>
<path d="M988 5163 c29 -2 74 -2 100 0 26 2 2 3 -53 3 -55 0 -76 -1 -47 -3z"/>
<path d="M3240 5153 c-14 -7 -18 -13 -10 -13 17 0 47 17 40 23 -3 2 -16 -2
-30 -10z"/>
<path d="M364 5108 c-101 -106 -285 -330 -284 -347 0 -3 11 7 23 24 35 48 165
203 245 293 40 45 71 82 70 82 -2 0 -26 -24 -54 -52z"/>
<path d="M1683 5153 c185 -2 489 -2 675 0 185 1 33 2 -338 2 -371 0 -523 -1
-337 -2z"/>
<path d="M2883 5143 c15 -2 37 -2 50 0 12 2 0 4 -28 4 -27 0 -38 -2 -22 -4z"/>
<path d="M3174 5125 c-5 -13 -44 -15 -248 -17 l-241 -2 243 -6 243 -5 -43 -41
c-67 -63 -168 -147 -173 -143 -2 2 -6 15 -10 29 -5 20 4 36 45 83 29 31 48 57
43 57 -5 0 -31 -25 -57 -56 -39 -45 -47 -59 -40 -77 5 -12 11 -438 14 -947 l5
-925 3 911 2 911 105 88 c58 49 105 89 105 89 0 1 4 16 9 34 10 32 5 45 -5 17z"/>
<path d="M300 4957 c-78 -94 -150 -188 -162 -207 -26 -42 -13 -31 32 30 19 25
86 108 149 185 138 169 135 165 127 165 -3 0 -69 -78 -146 -173z"/>
<path d="M1528 5113 c167 -2 437 -2 600 0 163 1 27 2 -303 2 -330 0 -464 -1
-297 -2z"/>
<path d="M404 4982 c-120 -145 -217 -272 -212 -277 2 -2 27 26 54 63 28 37 95
121 148 186 54 65 96 120 94 122 -2 2 -40 -40 -84 -94z"/>
<path d="M823 4790 c0 -30 2 -43 4 -27 2 15 2 39 0 55 -2 15 -4 2 -4 -28z"/>
<path d="M10 4735 c0 -19 4 -35 8 -35 4 0 6 16 4 35 -2 19 -6 35 -8 35 -2 0
-4 -16 -4 -35z"/>
<path d="M833 4655 c0 -33 2 -45 4 -27 2 18 2 45 0 60 -2 15 -4 0 -4 -33z"/>
<path d="M60 4693 c5 -2 10 -11 10 -18 0 -8 4 -17 10 -20 6 -4 7 2 1 16 -4 13
-13 24 -20 25 -6 1 -7 0 -1 -3z"/>
<path d="M255 4590 c11 -5 27 -9 35 -9 9 0 8 4 -5 9 -11 5 -27 9 -35 9 -9 0
-8 -4 5 -9z"/>
<path d="M332 4568 c27 -9 27 -11 31 -111 l3 -102 2 106 c2 103 1 107 -20 113
-36 9 -46 6 -16 -6z"/>
<path d="M843 4510 c0 -36 2 -50 4 -32 2 17 2 47 0 65 -2 17 -4 3 -4 -33z"/>
<path d="M853 4355 c0 -38 2 -53 4 -32 2 20 2 52 0 70 -2 17 -4 1 -4 -38z"/>
<path d="M1913 4393 c9 -2 25 -2 35 0 9 3 1 5 -18 5 -19 0 -27 -2 -17 -5z"/>
<path d="M1843 4383 c9 -2 23 -2 30 0 6 3 -1 5 -18 5 -16 0 -22 -2 -12 -5z"/>
<path d="M2027 4375 c138 -39 257 -138 318 -266 19 -40 35 -80 35 -88 0 -8 3
-12 6 -8 10 9 -16 78 -51 137 -70 116 -215 222 -320 235 -36 5 -34 4 12 -10z"/>
<path d="M1737 4356 c-109 -45 -195 -114 -258 -207 -37 -55 -79 -147 -79 -172
0 -7 11 13 24 45 36 88 70 139 133 202 66 66 119 99 207 132 33 13 54 23 46
23 -8 0 -41 -10 -73 -23z"/>
<path d="M374 4145 c0 -77 2 -107 3 -67 2 40 2 103 0 140 -2 37 -3 4 -3 -73z"/>
<path d="M863 4190 c0 -41 2 -58 4 -37 2 20 2 54 0 75 -2 20 -4 3 -4 -38z"/>
<path d="M576 4174 c-10 -14 -15 -31 -12 -37 3 -8 5 -7 5 2 1 8 11 25 23 38
12 13 17 23 11 23 -6 0 -18 -12 -27 -26z"/>
<path d="M659 4174 c17 -14 35 -40 40 -57 5 -18 10 -24 10 -14 1 26 -26 75
-48 87 -33 17 -34 11 -2 -16z"/>
<path d="M554 4030 c0 -52 1 -74 3 -47 2 26 2 68 0 95 -2 26 -3 4 -3 -48z"/>
<path d="M873 4000 c0 -47 2 -66 4 -42 2 23 2 61 0 85 -2 23 -4 4 -4 -43z"/>
<path d="M713 4005 c0 -33 2 -45 4 -27 2 18 2 45 0 60 -2 15 -4 0 -4 -33z"/>
<path d="M2392 3980 c0 -14 2 -19 5 -12 2 6 2 18 0 25 -3 6 -5 1 -5 -13z"/>
<path d="M1392 3940 c0 -14 2 -19 5 -12 2 6 2 18 0 25 -3 6 -5 1 -5 -13z"/>
<path d="M2403 3915 c0 -22 2 -30 4 -17 2 12 2 30 0 40 -3 9 -5 -1 -4 -23z"/>
<path d="M384 3800 c0 -74 1 -105 3 -67 2 37 2 97 0 135 -2 37 -3 6 -3 -68z"/>
<path d="M723 3875 c0 -27 2 -38 4 -22 2 15 2 37 0 50 -2 12 -4 0 -4 -28z"/>
<path d="M1382 3880 c0 -19 2 -27 5 -17 2 9 2 25 0 35 -3 9 -5 1 -5 -18z"/>
<path d="M884 3775 c0 -55 1 -76 3 -47 2 29 2 74 0 100 -2 26 -3 2 -3 -53z"/>
<path d="M2413 3830 c0 -25 2 -35 4 -22 2 12 2 32 0 45 -2 12 -4 2 -4 -23z"/>
<path d="M564 3650 c0 -102 2 -143 3 -92 2 50 2 134 0 185 -1 50 -3 9 -3 -93z"/>
<path d="M1373 3750 c0 -47 2 -66 4 -42 2 23 2 61 0 85 -2 23 -4 4 -4 -43z"/>
<path d="M733 3755 c0 -27 2 -38 4 -22 2 15 2 37 0 50 -2 12 -4 0 -4 -28z"/>
<path d="M2423 3685 c0 -44 2 -61 4 -37 2 23 2 59 0 80 -2 20 -4 1 -4 -43z"/>
<path d="M743 3640 c0 -30 2 -43 4 -27 2 15 2 39 0 55 -2 15 -4 2 -4 -28z"/>
<path d="M894 3495 c0 -71 1 -99 3 -62 2 37 2 96 0 130 -2 34 -3 4 -3 -68z"/>
<path d="M1364 3495 c0 -66 1 -92 3 -57 2 34 2 88 0 120 -2 31 -3 3 -3 -63z"/>
<path d="M394 3460 c0 -74 1 -105 3 -67 2 37 2 97 0 135 -2 37 -3 6 -3 -68z"/>
<path d="M753 3515 c0 -33 2 -45 4 -27 2 18 2 45 0 60 -2 15 -4 0 -4 -33z"/>
<path d="M763 3340 c0 -47 2 -66 4 -42 2 23 2 61 0 85 -2 23 -4 4 -4 -43z"/>
<path d="M574 3050 c0 -168 2 -236 3 -152 2 83 2 221 0 305 -1 83 -3 15 -3
-153z"/>
<path d="M2424 3265 c0 -49 1 -71 3 -48 2 23 2 64 0 90 -2 26 -3 8 -3 -42z"/>
<path d="M1373 3300 c0 -25 2 -35 4 -22 2 12 2 32 0 45 -2 12 -4 2 -4 -23z"/>
<path d="M904 2985 c0 -165 2 -234 3 -153 2 81 2 216 0 300 -1 84 -3 18 -3
-147z"/>
<path d="M404 2930 c0 -179 2 -252 3 -162 2 89 2 235 0 325 -1 89 -3 16 -3
-163z"/>
<path d="M1382 3210 c0 -19 2 -27 5 -17 2 9 2 25 0 35 -3 9 -5 1 -5 -18z"/>
<path d="M1392 3145 c0 -16 4 -43 8 -60 11 -42 11 -1 1 50 -7 34 -9 35 -9 10z"/>
<path d="M2413 3100 c0 -30 2 -43 4 -27 2 15 2 39 0 55 -2 15 -4 2 -4 -28z"/>
<path d="M764 2910 c0 -91 2 -128 3 -82 2 45 2 119 0 165 -1 45 -3 8 -3 -83z"/>
<path d="M1412 3035 c-1 -11 3 -38 7 -60 7 -34 9 -35 9 -10 0 35 -15 101 -16
70z"/>
<path d="M2403 2995 c0 -22 2 -30 4 -17 2 12 2 30 0 40 -3 9 -5 -1 -4 -23z"/>
<path d="M2964 2860 c0 -69 1 -97 3 -62 2 34 2 90 0 125 -2 34 -3 6 -3 -63z"/>
<path d="M2393 2905 c0 -22 2 -30 4 -17 2 12 2 30 0 40 -3 9 -5 -1 -4 -23z"/>
<path d="M1433 2895 c0 -22 2 -30 4 -17 2 12 2 30 0 40 -3 9 -5 -1 -4 -23z"/>
<path d="M2383 2825 c0 -22 2 -30 4 -17 2 12 2 30 0 40 -3 9 -5 -1 -4 -23z"/>
<path d="M1443 2795 c0 -33 2 -45 4 -27 2 18 2 45 0 60 -2 15 -4 0 -4 -33z"/>
<path d="M2373 2745 c0 -22 2 -30 4 -17 2 12 2 30 0 40 -3 9 -5 -1 -4 -23z"/>
<path d="M2362 2670 c0 -19 2 -27 5 -17 2 9 2 25 0 35 -3 9 -5 1 -5 -18z"/>
<path d="M2974 2590 c0 -52 1 -74 3 -47 2 26 2 68 0 95 -2 26 -3 4 -3 -48z"/>
<path d="M1452 2630 c0 -19 2 -27 5 -17 2 9 2 25 0 35 -3 9 -5 1 -5 -18z"/>
<path d="M564 2500 c0 -85 2 -120 3 -77 2 42 2 112 0 155 -1 42 -3 7 -3 -78z"/>
<path d="M754 2470 c0 -96 2 -136 3 -87 2 48 2 126 0 175 -1 48 -3 8 -3 -88z"/>
<path d="M2352 2600 c0 -19 2 -27 5 -17 2 9 2 25 0 35 -3 9 -5 1 -5 -18z"/>
<path d="M904 2385 c0 -99 2 -138 3 -87 2 51 2 132 0 180 -1 48 -3 6 -3 -93z"/>
<path d="M2342 2530 c0 -19 2 -27 5 -17 2 9 2 25 0 35 -3 9 -5 1 -5 -18z"/>
<path d="M1443 2460 c0 -36 2 -50 4 -32 2 17 2 47 0 65 -2 17 -4 3 -4 -33z"/>
<path d="M2332 2460 c0 -19 2 -27 5 -17 2 9 2 25 0 35 -3 9 -5 1 -5 -18z"/>
<path d="M394 2225 c0 -132 2 -185 3 -117 2 68 2 176 0 240 -1 64 -3 9 -3
-123z"/>
<path d="M2983 2385 c0 -44 2 -61 4 -37 2 23 2 59 0 80 -2 20 -4 1 -4 -43z"/>
<path d="M2322 2395 c0 -16 2 -22 5 -12 2 9 2 23 0 30 -3 6 -5 -1 -5 -18z"/>
<path d="M1433 2345 c0 -22 2 -30 4 -17 2 12 2 30 0 40 -3 9 -5 -1 -4 -23z"/>
<path d="M1422 2260 c0 -19 2 -27 5 -17 2 9 2 25 0 35 -3 9 -5 1 -5 -18z"/>
<path d="M2993 2205 c0 -38 2 -53 4 -32 2 20 2 52 0 70 -2 17 -4 1 -4 -38z"/>
<path d="M554 2100 c0 -85 2 -120 3 -77 2 42 2 112 0 155 -1 42 -3 7 -3 -78z"/>
<path d="M1412 2195 c0 -16 2 -22 5 -12 2 9 2 23 0 30 -3 6 -5 -1 -5 -18z"/>
<path d="M744 2020 c0 -96 2 -136 3 -87 2 48 2 126 0 175 -1 48 -3 8 -3 -88z"/>
<path d="M1391 2094 c-6 -37 -10 -68 -8 -71 3 -2 10 26 17 62 7 36 10 68 8 70
-3 3 -10 -25 -17 -61z"/>
<path d="M3003 2040 c0 -36 2 -50 4 -32 2 17 2 47 0 65 -2 17 -4 3 -4 -33z"/>
<path d="M1357 1938 c-10 -39 -16 -73 -13 -75 2 -2 11 28 21 67 10 39 15 73
13 75 -2 3 -12 -27 -21 -67z"/>
<path d="M3013 1895 c0 -33 2 -45 4 -27 2 18 2 45 0 60 -2 15 -4 0 -4 -33z"/>
<path d="M544 1700 c0 -85 2 -120 3 -77 2 42 2 112 0 155 -1 42 -3 7 -3 -78z"/>
<path d="M384 1665 c0 -99 2 -138 3 -87 2 51 2 132 0 180 -1 48 -3 6 -3 -93z"/>
<path d="M3023 1775 c0 -22 2 -30 4 -17 2 12 2 30 0 40 -3 9 -5 -1 -4 -23z"/>
<path d="M734 1580 c0 -96 2 -136 3 -87 2 48 2 126 0 175 -1 48 -3 8 -3 -88z"/>
<path d="M534 1315 c0 -77 2 -107 3 -67 2 40 2 103 0 140 -2 37 -3 4 -3 -73z"/>
<path d="M724 1130 c0 -96 2 -136 3 -87 2 48 2 126 0 175 -1 48 -3 8 -3 -88z"/>
<path d="M714 680 c0 -96 2 -136 3 -87 2 48 2 126 0 175 -1 48 -3 8 -3 -88z"/>
<path d="M704 230 c0 -96 2 -136 3 -87 2 48 2 126 0 175 -1 48 -3 8 -3 -88z"/>
</g>
</svg>
